<svg width="84" height="125" viewBox="0 0 84 125" fill="none" xmlns="http://www.w3.org/2000/svg">
<g clip-path="url(#clip0_176_2578)">
<path d="M81.0059 124.477C79.1334 124.262 75.9837 124.308 74.3538 123.836C70.4349 122.699 66.6351 123.029 62.7253 123.932C58.6828 124.867 54.6815 124.409 50.9045 122.556C50.7122 122.46 50.52 122.364 50.3322 122.254C50.2407 122.203 50.1583 122.126 50.085 122.071C52.0994 112.461 52.7129 102.687 53.8849 92.9821C55.6109 78.674 55.2171 64.32 54.9608 49.9707C54.8372 43.0986 56.087 36.5519 58.5912 30.1749C59.2505 28.497 59.4336 26.5991 59.6396 24.779C59.951 22.0467 59.7907 19.3373 58.8659 16.6875C58.2616 14.9499 57.7901 13.162 57.3231 11.3832C57.1629 10.7689 57.0255 10.0537 57.1812 9.46693C57.8908 6.82627 58.7103 4.21313 59.4702 1.65041C61.535 8.99014 76.24 8.76092 77.8607 1.52205C77.9889 1.83379 78.0942 2.07218 78.1903 2.31516C78.2315 2.41602 78.2636 2.51688 78.2956 2.62232C79.811 7.62397 79.8797 12.644 78.5016 17.6823C77.0229 23.0644 78.6024 28.7721 79.6416 34.0947C80.8594 40.3341 82.2374 46.5782 82.5304 52.946C83.034 63.8249 82.2557 74.7497 81.4179 85.5874C80.4519 98.103 79.985 110.637 80.8502 123.189C80.8731 123.51 80.9235 123.826 81.0059 124.473V124.477Z" fill="#022111" fill-opacity="0.06" stroke="black" stroke-width="1.5" stroke-miterlimit="10"/>
<path d="M25.9215 1.52205H21.0504V6.2578H25.9215V1.52205Z" fill="#D4D4CF"/>
<path d="M30.7927 1.52205H25.9215V6.2578H30.7927V1.52205Z" fill="#D4D4CF"/>
<path d="M1.17658 51.7357L0.750816 54.5322L8.69392 55.5499L8.96861 52.4325L1.17658 51.7357Z" fill="white"/>
<path d="M10.5526 58.5207L10.5984 57.0032" stroke="#0A0A0A" stroke-width="2" stroke-miterlimit="10"/>
<path d="M23.637 45.6934H25.9215L25.8162 66.9057C24.6854 66.9057 21.2701 122.703 21.2701 122.703H8.58862L10.5526 58.5207" fill="#F0F2F1"/>
<path d="M23.637 45.6934H25.9215L25.8162 66.9057C24.6854 66.9057 21.2701 122.703 21.2701 122.703H8.58862L10.5526 58.5207" stroke="#0A0A0A" stroke-width="1.5" stroke-miterlimit="10"/>
<path d="M19.8234 2.46645L18.8071 3.06243L20.501 25.3383L23.7744 45.2395H25.9215V5.51053L21.8286 2.9524L19.8234 2.46645Z" fill="white"/>
<path d="M25.9215 6.13401C25.9215 6.13401 21.3708 1.59081 21.0458 1.52204C20.7207 1.45786 19.0177 3.14953 18.8528 3.48419C18.688 3.81886 25.1341 7.61938 25.9215 7.66981V6.13401Z" fill="#F1F1F1"/>
<path d="M25.9215 5.85436C25.9215 5.85436 22.758 4.21312 21.8699 4.67615C20.9817 5.14377 22.2636 6.07441 22.2224 6.84002C22.1812 7.60104 21.4166 7.64688 21.966 8.44916C22.5154 9.25603 25.9169 7.17927 25.9169 7.17927V5.85436H25.9215Z" fill="black"/>
<path d="M23.7744 29.7578V57.4617C23.7744 57.4617 15.4192 60.1757 10.4474 59.7218L12.535 23.5366L9.31655 54.0692L0.508175 52.8268C0.508175 52.8268 5.48005 11.209 6.15762 8.49502C6.83519 5.78101 18.8071 3.52087 18.8071 3.52087L23.7744 29.7532V29.7578Z" fill="#F0F2F1" stroke="black" stroke-width="1.5" stroke-miterlimit="10"/>
<path d="M18.8071 3.52087L23.7744 29.7578L14.7417 14.8307L17.6763 10.9844L14.7417 7.36724L18.8071 3.52087Z" fill="#211F1F"/>
<path d="M25.9215 5.46927V7.55978C24.5114 7.55978 24.6213 5.46927 25.9215 5.46927Z" fill="#211F1F"/>
<path d="M25.9215 12.2589C26.273 12.2589 26.5579 11.9736 26.5579 11.6216C26.5579 11.2697 26.273 10.9844 25.9215 10.9844C25.5701 10.9844 25.2852 11.2697 25.2852 11.6216C25.2852 11.9736 25.5701 12.2589 25.9215 12.2589Z" fill="#383535"/>
<path d="M25.9215 18.6175C26.273 18.6175 26.5579 18.3322 26.5579 17.9803C26.5579 17.6283 26.273 17.343 25.9215 17.343C25.5701 17.343 25.2852 17.6283 25.2852 17.9803C25.2852 18.3322 25.5701 18.6175 25.9215 18.6175Z" fill="#383535"/>
<path d="M25.9215 24.9808C26.273 24.9808 26.5579 24.6954 26.5579 24.3435C26.5579 23.9916 26.273 23.7063 25.9215 23.7063C25.5701 23.7063 25.2852 23.9916 25.2852 24.3435C25.2852 24.6954 25.5701 24.9808 25.9215 24.9808Z" fill="#383535"/>
<path d="M25.9215 31.3394C26.273 31.3394 26.5579 31.0541 26.5579 30.7022C26.5579 30.3502 26.273 30.0649 25.9215 30.0649C25.5701 30.0649 25.2852 30.3502 25.2852 30.7022C25.2852 31.0541 25.5701 31.3394 25.9215 31.3394Z" fill="#383535"/>
<path d="M25.9215 37.7026C26.273 37.7026 26.5579 37.4173 26.5579 37.0654C26.5579 36.7134 26.273 36.4281 25.9215 36.4281C25.5701 36.4281 25.2852 36.7134 25.2852 37.0654C25.2852 37.4173 25.5701 37.7026 25.9215 37.7026Z" fill="#383535"/>
<path d="M25.9215 44.0613C26.273 44.0613 26.5579 43.776 26.5579 43.424C26.5579 43.0721 26.273 42.7868 25.9215 42.7868C25.5701 42.7868 25.2852 43.0721 25.2852 43.424C25.2852 43.776 25.5701 44.0613 25.9215 44.0613Z" fill="#383535"/>
<path d="M15.0392 40.7055L22.0392 43.424V45.1157L15.0392 42.7868V40.7055Z" fill="#211F1F"/>
<path d="M50.6664 51.7357L51.0876 54.5322L43.1491 55.5499L42.8744 52.4325L50.6664 51.7357Z" fill="white"/>
<path d="M27.9588 45.6934H25.8208V46.1014L25.8162 66.9057C26.9562 66.9057 30.5088 123.107 30.5088 123.107H43.3048L41.3041 58.2181" fill="#F0F2F1"/>
<path d="M27.9588 45.6934H25.8208V46.1014L25.8162 66.9057C26.9562 66.9057 30.5088 123.107 30.5088 123.107H43.3048L41.3041 58.2181" stroke="#0A0A0A" stroke-width="1.5" stroke-miterlimit="10"/>
<path d="M32.0196 2.46645L33.036 3.06243L31.3421 25.3383L28.0641 45.2395H25.9215V5.51053L30.0144 2.9524L32.0196 2.46645Z" fill="white"/>
<path d="M25.9215 6.13401C25.9215 6.13401 30.4676 1.5908 30.7973 1.52204C31.1269 1.45327 32.8254 3.14952 32.9902 3.48419C33.155 3.81885 26.709 7.61937 25.9215 7.6698V6.13401Z" fill="#F1F1F1"/>
<path d="M25.9215 5.85436C25.9215 5.85436 29.085 4.21312 29.9732 4.67615C30.8613 5.14377 29.5795 6.07441 29.6207 6.84002C29.6619 7.60104 30.4264 7.64688 29.8725 8.44916C29.3231 9.25603 25.9215 7.17927 25.9215 7.17927V5.85436Z" fill="black"/>
<path d="M41.2354 57.0124L39.3035 23.5366L42.5219 54.0692L51.3303 52.8268C51.3303 52.8268 46.363 11.2136 45.6854 8.4996C45.0079 5.78559 33.036 3.52545 33.036 3.52545L28.0687 29.7578H28.0641V57.4617C28.0641 57.4617 36.4192 60.1757 41.3911 59.7218L41.2354 57.0124Z" fill="#F0F2F1" stroke="black" stroke-width="1.5" stroke-miterlimit="10"/>
<path d="M33.7742 10.6691L33.5257 10.9749L33.7649 11.288L36.4971 14.8634L29.0711 27.129L33.3569 4.51283L36.4209 7.41178L33.7742 10.6691Z" fill="#211F1F" stroke="black"/>
<path d="M25.9215 5.46927V7.55978C27.3316 7.55978 27.2217 5.46927 25.9215 5.46927Z" fill="#211F1F"/>
<path d="M25.9215 12.2589C26.273 12.2589 26.5579 11.9736 26.5579 11.6216C26.5579 11.2697 26.273 10.9844 25.9215 10.9844C25.5701 10.9844 25.2852 11.2697 25.2852 11.6216C25.2852 11.9736 25.5701 12.2589 25.9215 12.2589Z" fill="#383535"/>
<path d="M25.9215 18.6175C26.273 18.6175 26.5579 18.3322 26.5579 17.9803C26.5579 17.6283 26.273 17.343 25.9215 17.343C25.5701 17.343 25.2852 17.6283 25.2852 17.9803C25.2852 18.3322 25.5701 18.6175 25.9215 18.6175Z" fill="#383535"/>
<path d="M25.9215 24.9808C26.273 24.9808 26.5579 24.6954 26.5579 24.3435C26.5579 23.9916 26.273 23.7063 25.9215 23.7063C25.5701 23.7063 25.2852 23.9916 25.2852 24.3435C25.2852 24.6954 25.5701 24.9808 25.9215 24.9808Z" fill="#383535"/>
<path d="M25.9215 31.3394C26.273 31.3394 26.5579 31.0541 26.5579 30.7022C26.5579 30.3502 26.273 30.0649 25.9215 30.0649C25.5701 30.0649 25.2852 30.3502 25.2852 30.7022C25.2852 31.0541 25.5701 31.3394 25.9215 31.3394Z" fill="#383535"/>
<path d="M25.9215 37.7026C26.273 37.7026 26.5579 37.4173 26.5579 37.0654C26.5579 36.7134 26.273 36.4281 25.9215 36.4281C25.5701 36.4281 25.2852 36.7134 25.2852 37.0654C25.2852 37.4173 25.5701 37.7026 25.9215 37.7026Z" fill="#383535"/>
<path d="M25.9215 44.0613C26.273 44.0613 26.5579 43.776 26.5579 43.424C26.5579 43.0721 26.273 42.7868 25.9215 42.7868C25.5701 42.7868 25.2852 43.0721 25.2852 43.424C25.2852 43.776 25.5701 44.0613 25.9215 44.0613Z" fill="#383535"/>
<path d="M36.8038 40.7055L29.8038 43.424V45.1157L36.8038 42.7868V40.7055Z" fill="#211F1F"/>
</g>
<defs>
<clipPath id="clip0_176_2578">
<rect width="84" height="125" fill="white"/>
</clipPath>
</defs>
</svg>
