<svg width="311" height="534" viewBox="0 0 311 534" fill="none" xmlns="http://www.w3.org/2000/svg">
<g clip-path="url(#clip0_176_2519)">
<path d="M-12.4805 264.657C-11.9205 264.471 -11.3713 264.347 -10.8221 264.224C-10.7113 263.883 -10.5778 263.558 -10.4839 263.24C-9.86289 261.443 -7.57292 261.969 -7.01732 263.366C-6.87554 263.364 -6.7734 263.369 -6.56313 263.419C-5.97316 263.431 -5.60802 263.7 -5.36671 264.09C-1.95326 264.67 1.3214 266.345 4.58523 268.083C12.2468 272.22 19.5946 276.829 27.0938 281.234C29.38 282.004 31.6614 282.876 33.8418 283.886C33.5189 283.224 33.0999 282.598 32.6749 281.932C27.7118 278.342 23.2586 273.964 19.0661 269.568C16.6126 267.018 14.5246 264.068 12.2623 261.307C11.764 260.692 10.2544 259.156 8.73393 257.682C8.98349 258.395 9.22217 259.17 9.39952 260.076C9.56491 260.903 8.42425 261.541 7.81294 260.985C7.1728 260.372 6.612 259.746 6.02835 259.104C5.79043 259.14 5.52367 259.12 5.22812 259.043C3.59061 258.54 3.22765 256.404 2.63839 255.053C2.51716 254.788 2.48126 254.55 2.44533 254.312C2.27623 253.729 2.14078 253.1 2.0102 252.37C1.91553 251.877 2.2511 251.279 2.75465 251.122C6.60763 249.911 11.8125 257.521 13.9368 260.04C17.8588 264.66 21.7313 269.49 25.9526 273.943C25.1336 272.951 24.3603 271.993 23.7516 271.051C19.0873 263.663 16.0961 255.536 13.5231 247.225C13.2436 246.314 14.2294 245.455 14.9694 245.789C15.1493 244.16 17.8519 243.793 18.5912 245.466C19.723 247.992 20.6171 249.885 21.0867 252.593C21.2364 253.584 20.2712 254.176 19.453 253.995C19.3396 254.722 18.7362 255.158 18.0789 255.237C20.5396 262.268 24.0493 269.262 28.4996 274.694C29.7424 276.21 31.4574 277.898 32.9068 279.707C28.2592 265.848 32.0796 246.958 38.2114 235.588C38.642 234.813 39.5938 234.67 40.1666 235.374C46.1047 242.468 46.882 251.781 49.6951 260.34C53.3913 271.524 58.686 281.879 64.2355 292.175C64.1987 288.976 64.3038 285.776 64.5675 282.553C64.9523 277.445 64.7135 272.37 64.9397 267.286C64.9592 266.878 65.5997 266.822 65.716 267.19C68.3129 275.66 65.1175 285.39 65.2774 294.106C65.3867 294.293 65.4959 294.479 65.5655 294.671C66.6819 296.693 68.0191 299.371 69.3873 302.389C68.4106 292.964 70.382 282.648 69.6563 273.409C68.9999 265.031 67.767 256.192 62.8562 249.187C59.959 245.041 57.3873 259.037 57.1546 260.451C56.3156 265.506 57.0987 270.559 57.2919 275.6C57.3241 276.082 56.6282 276.308 56.4542 275.828C52.8438 266.152 55.0119 254.184 59.5744 245.18C59.9148 244.48 60.7525 244.252 61.3915 244.723C79.3748 257.989 69.5213 287.828 71.2367 306.713C74.0255 313.634 76.38 321.573 75.9787 328.184C82.195 313.881 88.0533 299.49 93.508 284.977C96.0855 278.139 98.4924 271.246 100.854 264.319C91.4582 255.414 80.398 245.423 74.8841 233.885C73.3958 230.743 66.5566 216.606 71.5929 213.696C79.0066 209.474 89.0216 223.557 91.7274 228.584C95.8615 236.356 101.888 247.391 103.097 257.551C107.693 243.533 111.892 229.433 115.596 215.145C115.429 214.846 115.279 214.523 115.112 214.224C109.16 211.736 103.595 205.235 99.4084 200.878C95.222 196.521 88.3587 189.344 89.8366 182.611C91.4904 175.162 100.845 178.961 104.634 181.756C112.644 187.665 116.132 196.934 117.84 206.37C119.83 198.322 121.655 190.259 123.332 182.158C114.8 178.437 83.6271 152.763 101.652 146.29C109.96 143.292 122.011 159.441 125.571 170.666C126.976 163.315 128.279 155.959 129.434 148.565C123.905 145.79 118.751 139.592 114.765 135.489C111.111 131.701 104.054 125.121 105.174 119.111C106.387 112.499 116.163 116.539 119.064 118.961C124.836 123.747 128.689 131.805 130.864 139.366C131.767 132.983 132.59 126.613 133.304 120.198C133.282 120.181 133.225 120.21 133.202 120.193C124.872 116.198 117.874 107.054 113.778 98.9922C111.784 95.0547 110.837 87.9779 117.256 89.1181C123.924 90.3016 129.733 97.6177 133.251 102.785C133.728 103.524 134.256 104.337 134.757 105.235C135.059 101.863 135.338 98.475 135.572 95.053C135.08 94.4783 134.587 93.9037 134.208 93.2715C126.967 89.9031 121.009 82.5485 117.009 75.9327C115.492 73.4038 112.878 66.4367 116.988 64.6401C122.6 62.1906 128.63 68.0132 131.545 72.1363C133.736 75.2328 135.273 78.8336 136.307 82.5915C136.613 76.8264 136.839 71.0733 136.981 65.2924C136.901 65.3044 136.828 65.356 136.726 65.3512C136.141 65.2367 135.566 65.0598 134.975 64.9056C134.975 64.9056 134.998 64.9225 135.004 64.9621C135.218 65.4369 134.587 65.9581 134.164 65.5757C133.65 65.126 133.232 64.6416 132.831 64.1343C127.972 62.1707 123.376 58.4637 120.115 54.8595C117.706 52.2015 114.249 46.903 117.525 43.7517C120.981 40.4516 128.007 45.2113 130.351 47.5749C133.416 50.6815 135.554 54.9014 137.114 59.1884C137.175 54.0888 137.197 48.9952 137.14 43.9136C136.639 43.685 136.195 43.4277 135.801 43.1018C135.889 43.5549 135.485 44.1026 134.978 43.8344C134.557 43.5938 134.225 43.2788 133.911 42.941C130.801 42.7615 127.522 39.8495 125.494 37.9655C123.225 35.8338 119.975 32.309 121.02 28.8862C122.103 25.3156 128.708 27.0158 130.709 28.3158C133.628 30.187 135.624 33.0695 137.079 36.257C137.063 35.6105 137.069 34.9809 137.059 34.3741C136.825 34.3079 136.631 34.0938 136.645 33.7874C136.72 33.2083 136.88 32.6569 137.001 32.1114C137.006 32.0093 136.988 31.8903 137.009 31.7654C137.002 31.5839 137.064 31.453 137.171 31.3557C137.369 30.6565 137.63 29.9681 137.892 29.2797C137.902 28.4062 137.968 27.5038 138.058 26.6182C137.822 26.9377 137.328 26.8906 137.082 26.6033L136.922 26.4855C136.922 26.4855 136.784 26.2427 136.783 26.1009C134.341 24.2996 132.651 20.7624 131.231 18.3404C130.064 16.3871 126.637 11.2869 128.53 8.91235C130.94 5.93246 134.425 9.80709 135.53 11.8913C136.825 14.2916 137.455 17.1169 137.981 19.7955C138.188 20.8999 138.419 22.1629 138.469 23.433C138.707 21.9167 138.956 20.4798 139.139 19.2758C139.626 16.3226 140.861 8.91654 145.132 9.00174C157.363 9.28466 145.04 28.8089 140.158 34.7578C139.964 35.2131 139.769 35.6684 139.613 36.1177C139.38 36.7208 138.86 36.9008 138.383 36.8308C138.442 37.8967 138.456 38.9289 138.493 39.9779C138.917 41.3131 139.285 42.6771 139.545 43.9966C139.675 44.5855 139.007 44.7269 138.642 44.4576C138.664 45.1437 138.687 45.8298 138.709 46.5159C139.99 42.1043 142.94 37.8667 145.466 34.5852C147.33 32.1542 151.657 27.1002 154.998 30.0231C158.597 33.1708 154.455 39.4541 152.32 41.9667C150.443 44.1767 148.166 46.0211 145.974 47.8932C144.234 49.3931 142.291 51.8361 140.102 52.6533C139.989 52.7109 139.898 52.6435 139.812 52.6159C139.774 52.7636 139.729 52.8717 139.691 53.0195C139.546 53.4064 139.241 53.5336 138.906 53.4625C138.982 57.3245 138.973 61.1588 138.963 64.9931C139.016 65.2082 139.086 65.4005 139.155 65.5928C139.155 65.5928 139.155 65.5928 139.139 65.6156C139.139 65.6156 139.167 65.6721 139.151 65.6949C141.39 59.1714 158.93 38.0687 161.992 47.8682C164.337 55.3422 144.61 71.0967 138.948 68.7877C138.892 74.5963 138.694 80.4059 138.457 86.2215C142.535 76.1555 156.886 59.1845 163.675 66.9409C168.357 72.2978 160.89 79.1237 157.209 82.6808C153.933 85.8321 143.853 95.1007 138.487 92.1995C138.328 92.0817 138.247 91.9519 138.201 91.7764C137.881 97.9897 137.42 104.204 136.874 110.391C137.148 111.404 137.321 112.412 137.368 113.399C141.322 106.272 146.959 99.8234 154.128 96.1251C159.133 93.5444 167.386 90.7166 167.876 98.937C168.249 105.168 159.212 111.399 154.971 114.473C150.567 117.673 141.717 123.937 135.838 121.397C135.088 128.385 134.236 135.368 133.259 142.33C136.701 136.517 142.349 131.345 147.827 128.409C151.092 126.659 157.772 124.291 159.681 129.012C161.885 134.48 154.66 140.356 151 142.978C145.986 146.574 138.604 150.466 132.225 149.32C130.84 158.412 129.188 167.483 127.404 176.493C132.239 168.888 138.966 161.728 146.777 157.588C151.81 154.922 158.889 153.59 159.289 161.073C159.644 167.996 151.508 173.341 146.444 176.336C140.877 179.631 132.977 183.318 126.206 182.657C124.589 190.486 122.785 198.282 120.878 206.073C125.158 199.363 131.029 192.981 137.492 189.714C143.22 186.821 150.501 186.553 150.796 194.418C151.04 200.871 142.335 206.079 137.746 208.86C132.677 211.958 125.443 215.889 118.983 215.952C119.332 217.055 119.46 218.171 118.934 219.123C118.761 219.453 118.41 219.547 118.113 219.328C117.908 219.176 117.736 218.979 117.571 218.822C113.567 233.946 109.041 248.968 104.089 263.85C122.113 248.779 135.313 229.548 149.298 210.828C159.238 197.544 169.562 184.791 185.515 178.834C186.589 178.428 187.602 179.492 187.213 180.545C182.878 191.724 178.652 203.09 170.97 212.119C173.871 209.572 176.486 206.743 179.095 203.875C180.714 202.11 182.334 200.344 183.999 198.613C184.595 197.995 185.197 197.418 185.817 196.817C186.454 195.666 187.306 195.132 188.311 195.204C188.299 195.124 188.27 195.068 188.298 194.982C188.387 194.766 188.488 194.629 188.583 194.453C188.007 194.803 188.041 194.758 188.684 194.316C188.857 193.985 189.047 193.632 189.243 193.319C189.734 189.452 191.937 186.848 195.118 184.543C196.618 183.465 198.661 185.042 197.949 186.772C196.618 189.914 195.127 192.126 192.679 193.915C192.5 194.206 192.304 194.52 192.047 194.964C191.576 195.745 190.765 195.746 190.122 195.376C189.98 195.377 189.878 195.373 189.769 195.328C189.719 195.397 189.629 195.471 189.555 195.523C189.578 195.539 189.601 195.556 189.664 195.567C189.541 195.829 189.309 195.905 189.111 195.935C182.21 201.945 176.894 209.582 169.278 214.747C169.725 214.619 170.189 214.468 170.653 214.316C178.581 207.725 187.931 203.028 196.284 197.103C198.195 193.509 200.538 191.431 204.643 190.548C206.608 190.129 207.484 192.573 206.553 193.93C204.041 197.574 201.036 199.833 196.745 200.967C195.908 201.195 194.896 200.273 195.627 199.473C195.728 199.336 195.875 199.233 196.016 199.09C195.981 198.994 195.946 198.898 195.911 198.802C188.481 203.046 181.57 208.45 174.432 213.158C183.413 210.585 192.725 208.997 201.952 206.711C202.558 206.559 203.192 207.133 203.259 207.711C204.206 217.606 193.544 228.524 183.944 235.327C191.095 231.51 198.794 228.239 206.299 226.234C206.474 226.187 206.639 226.203 206.826 226.235C206.917 226.161 207.03 226.103 207.12 226.029C207.12 226.029 207.097 226.012 207.074 225.995C206.454 225.784 206.44 224.752 207.103 224.571C207.861 224.355 208.568 224.066 209.274 223.777C209.403 223.555 209.554 223.349 209.774 223.194C211.201 222.168 212.567 221.272 214.109 220.471C215.837 219.562 217.838 222.2 216.402 223.573C215.957 223.985 215.53 224.374 215.112 224.7C215.21 225.618 214.674 226.632 213.564 226.8C210.907 227.201 208.879 228.278 206.742 229.838C205.698 230.583 204.494 229.589 204.638 228.533C194.589 231.551 186.031 238.136 176.014 240.966C175.663 241.06 175.332 240.745 175.347 240.438C173.228 241.448 171.074 242.361 168.891 243.218C179.323 240.446 190.336 239.514 201.079 239.616C201.373 239.409 201.718 239.276 202.149 239.312C202.228 239.3 202.313 239.328 202.393 239.316C202.795 239.296 203.25 239.349 203.687 239.425C204.981 239.534 206.287 239.722 207.599 239.95C208.559 240.129 209.224 241.043 209.095 241.934C209.573 242.815 209.051 244.192 207.962 244.235C207.662 244.26 207.434 244.233 207.151 244.235C204.76 245.996 201.318 246.84 200.363 242.928C200.292 242.594 200.25 242.316 200.208 242.039C190.739 240.305 179.758 241.719 170.032 244.059C184.448 246.588 199.848 266.652 199.843 278.983C199.839 279.896 198.898 280.647 198.07 280.001C184.124 268.62 166.218 260.17 148.275 261.276C132.124 262.295 114.917 260.35 101.728 271.589C101.661 271.68 101.542 271.698 101.44 271.693C100.37 274.815 99.3167 277.915 98.2011 281.004C95.2709 289.132 92.1929 297.222 89.0127 305.307C100.201 295.729 112.958 287.273 126.783 282.529C130.889 281.119 145.706 277.036 146.627 284.482C147.898 294.511 134.009 302.59 126.694 305.581C114.374 310.625 100.236 310.873 87.1224 310.115C82.6176 321.381 77.8003 332.593 72.7441 343.699C72.7115 343.887 72.6333 344.041 72.5492 344.155C70.1299 349.488 67.6709 354.828 65.1207 360.101C75.959 351.427 96.4764 342.388 101.012 354.297C103.665 361.258 92.6206 366.819 87.8061 368.377C79.105 371.192 69.0297 370.948 59.8905 370.726C36.2067 418.167 7.59877 463.35 -26.178 503.31C-27.5042 504.869 -30.0325 502.899 -28.6895 501.317C0.809426 466.2 26.083 427.544 47.7336 386.92C47.5162 386.689 47.4059 386.361 47.6019 386.047C47.6356 386.001 47.6861 385.933 47.7197 385.887C42.928 381.014 42.059 370.153 41.1408 363.802C40.3793 358.624 38.5953 346.806 45.4468 344.636C53.4352 342.072 56.6457 353.532 56.8243 358.879C56.9625 363.421 56.2533 368.395 54.8905 373.205C60.5367 362.111 65.8983 350.878 71.004 339.561C70.7715 336.007 69.431 332.904 67.3501 330.135C54.7497 319.748 35.5256 328.085 21.808 330.582C8.72482 332.983 -4.82379 331.763 -16.998 326.483C-17.6924 326.182 -17.842 325.191 -17.1989 324.749C-4.08454 315.57 11.306 308.034 27.5898 308.699C13.1305 302.79 -7.23508 295.238 -13.4671 280.421C-13.6579 279.963 -13.5037 279.372 -13.0806 279.085C-7.22058 274.915 5.94647 277.369 12.8036 278.057C15.4206 278.331 17.9882 278.816 20.528 279.386C16.8186 277.248 13.1766 275.02 9.39983 272.974C5.4753 270.889 -0.0426077 266.713 -5.23909 265.875C-5.45568 266.456 -5.89452 266.907 -6.61431 266.975C-9.48751 267.287 -9.44786 267.281 -12.2115 267.111C-13.5224 267.025 -13.6967 265.063 -12.5261 264.623L-12.4805 264.657ZM93.3011 236.053C90.7857 230.004 87.441 224.506 82.7705 219.898C80.7925 217.945 78.3083 216.536 75.7976 215.353C70.8218 213.022 72.5074 220.291 72.7973 221.809C74.3205 229.346 78.2605 236.235 83.1167 242.072C86.2088 245.763 90.0353 249.079 93.6984 252.521C92.4873 250.007 91.5022 247.377 90.7442 244.774C90.4467 243.744 91.6884 242.968 92.4101 243.853C96.2707 248.604 99.0075 253.971 101.468 259.521C100.468 251.418 96.3132 243.244 93.3239 236.07L93.3011 236.053ZM135.155 15.3144C134.556 13.4985 133.769 11.5082 132.352 10.1809C131.22 9.13488 129.623 9.43683 129.783 11.035C130.152 14.5487 132.363 17.3785 134.473 20.2034C134.107 19.1229 133.877 18.0017 134.249 16.9722C134.349 16.6934 134.757 16.7129 134.879 16.9785C135.404 18.1768 135.896 19.4207 136.422 20.619C136.113 18.8404 135.718 17.0342 135.132 15.2976L135.155 15.3144ZM144.273 23.5911C144.055 24.6989 143.734 25.8018 143.375 26.9107C143.762 26.3858 144.149 25.8609 144.451 25.3083C145.952 22.8915 147.259 20.4025 148.197 17.7462C149.029 15.4709 148.164 8.66571 144.282 11.1582C140.975 13.3 140.888 20.9182 140.615 24.3462C140.501 25.7424 140.45 27.1494 140.421 28.5733C141.297 26.7173 142.235 24.8722 143.385 23.2182C143.671 22.8302 144.382 23.1081 144.296 23.608L144.273 23.5911ZM137.234 41.4456C135.934 38.4781 134.691 35.4819 132.713 32.8601C131.149 30.825 129.012 29.5657 126.462 29.2003C125.156 29.0121 122.949 28.8992 123.201 30.7066C123.585 33.3863 126.691 35.9594 128.638 37.5718C129.82 38.5494 131.108 39.2878 132.407 39.9638C132.243 39.4206 132.097 38.8546 131.957 38.3282C131.693 37.2526 133.199 36.8833 133.772 37.5878C134.894 38.9798 135.846 40.9858 137.218 42.2795C137.215 41.9959 137.213 41.7123 137.211 41.4287L137.234 41.4456ZM141.565 47.5653C142.587 46.2753 143.746 45.0863 144.746 43.9213C145.179 43.4301 145.978 44.0193 145.574 44.567C145.018 45.3201 144.429 46.1189 143.868 46.9741C143.868 46.9741 143.902 46.9285 143.919 46.9056C147.067 44.1184 150.359 41.4718 152.816 37.9981C154.201 36.0246 154.999 29.3537 150.735 32.4107C149.038 33.6607 147.839 35.525 146.61 37.1909C144.169 40.5 142.761 43.9371 141.559 47.5256L141.565 47.5653ZM122.344 45.5795C114.314 44.3784 123.128 54.4045 125.025 56.0854C126.762 57.6484 128.722 58.8126 130.75 59.8855C130.75 59.8855 130.721 59.829 130.715 59.7894C130.429 58.8387 131.466 57.9116 132.339 58.591C133.606 59.5962 135.146 60.6617 136.522 61.8532C133.473 54.952 130.203 46.7253 122.361 45.5567L122.344 45.5795ZM141.537 65.5172C142.229 64.8651 142.974 64.2863 143.672 63.6739C145.103 62.4033 146.48 60.9177 148.134 59.9176C148.767 59.5383 149.458 60.2248 149.027 60.8578C148.191 62.0385 147.223 63.0161 146.112 63.853C145.808 64.122 145.527 64.4078 145.246 64.6937C144.57 65.3229 143.923 66.0087 143.219 66.5815C146.478 64.9334 150.288 61.8233 151.376 60.9696C154.905 58.2871 161.853 53.2633 160.275 48.0463C159.104 44.1873 149.974 53.6979 149.119 54.6179C146.346 57.612 142.974 61.4673 141.56 65.534L141.537 65.5172ZM136.015 88.7196C134.532 79.8377 130.578 70.4367 122.348 66.8323C117.242 64.5813 116.651 69.3958 117.904 72.8571C118.808 75.3569 120.567 77.6061 122.144 79.7205C125.165 83.7463 128.832 86.9446 132.662 90.0167C132.209 88.625 131.891 87.1925 131.947 85.6833C131.946 84.8723 133.194 84.8056 133.46 85.4955C134.167 87.356 134.788 89.1887 135.868 90.8307C135.924 90.1326 135.942 89.4405 135.998 88.7424L136.015 88.7196ZM144.556 87.7953C144.342 87.9898 144.128 88.1844 143.953 88.3729C143.206 89.3374 142.346 90.2177 141.386 90.8493C150.326 88.8101 169.38 71.8189 161.647 67.3484C156.673 64.4895 149.444 74.0985 147.029 77.1805C144.306 80.6336 142.016 84.4066 140.312 88.4359C141.529 86.6906 143.186 85.3048 145.146 84.3194C145.485 84.1465 145.809 84.2801 145.97 84.5397C146.377 84.2756 146.987 84.6905 146.781 85.2082C146.37 86.2438 145.338 87.0687 144.578 87.8121L144.556 87.7953ZM134.49 108.844C132.16 102.544 126.215 96.7494 121.43 93.3956C119.616 92.1281 114.272 89.102 114.397 93.4231C114.497 96.7744 116.866 100.108 118.572 102.811C121.335 107.139 124.998 110.582 128.611 114.092C128.101 112.729 127.862 111.285 128.163 109.921C128.333 109.166 129.137 108.983 129.646 109.535C131.008 111.033 132.009 112.829 132.931 114.636C133.231 115.281 133.537 115.965 133.724 116.666C133.999 114.049 134.256 111.455 134.513 108.861L134.49 108.844ZM132.531 117.09C132.161 116.253 131.735 115.446 131.269 114.644C130.855 113.916 130.379 113.176 129.908 112.477C130.394 114.35 131.662 116.167 132.413 117.919C132.63 118.15 132.848 118.381 133.065 118.611C133.118 118.157 132.704 117.429 132.548 117.067L132.531 117.09ZM138.006 118.028C138.006 118.028 138.078 117.834 138.134 117.664C138.223 117.447 138.473 117.491 138.593 117.615C139.372 117.132 140.185 116.746 141.074 116.449C142.823 115.273 144.549 114.079 146.304 112.942C147.099 112.437 147.982 113.581 147.192 114.126C145.833 115.062 144.548 116.087 143.257 117.073C143.225 117.402 143.046 117.693 142.747 117.86C141.979 118.28 141.233 118.717 140.471 119.177C140.105 119.435 139.721 119.716 139.355 119.974C148.782 118.611 159.429 109.48 164.298 102.641C167.277 98.4597 164.943 94.5532 159.856 96.0513C157.1 96.8729 154.56 98.4529 152.202 100.026C145.284 104.578 141.858 111.707 137.51 118.366C137.673 118.24 137.843 118.154 138.006 118.028ZM130.442 142.613C128.589 135.714 125.013 128.953 120.721 123.355C117.844 119.611 113.437 116.079 108.506 117.939C105.034 119.254 108.255 124.202 109.392 125.957C113.762 132.74 120.005 137.557 125.906 142.791C125.768 141.879 125.852 140.954 126.185 140.072C126.491 139.275 127.62 139.369 127.932 140.092C128.343 141.064 128.906 141.973 129.519 142.813C129.703 143.09 129.961 143.457 130.253 143.778C130.318 143.403 130.383 143.028 130.425 142.636L130.442 142.613ZM133.593 148.039C133.593 148.039 133.625 147.71 133.743 147.55C134.726 146.408 135.889 145.644 137.183 145.084C137.843 144.619 138.48 144.138 139.163 143.69C139.546 143.409 140.219 143.835 139.945 144.302C139.911 144.347 139.877 144.393 139.844 144.439C140.357 144.747 140.432 145.648 139.941 146.026C139.327 146.524 138.678 146.927 137.994 147.233C145.562 145.238 153.661 140.183 156.993 134.042C161.655 125.429 149.635 129.637 146.577 131.68C140.072 136.008 137.03 142.187 132.55 148.115C132.891 148.084 133.231 148.053 133.61 148.016L133.593 148.039ZM124.915 174.375C122.704 163.899 109.508 142.711 100.207 149.348C91.9505 155.238 108.388 168.879 118.475 176.32C116.553 174.197 115.097 171.537 114.73 168.976C114.593 168.064 115.683 167.494 116.373 168.039C118.742 169.892 120.316 172.392 121.986 174.857C122.744 175.98 123.585 176.989 124.19 178.175C124.447 176.919 124.698 175.624 124.954 174.369L124.915 174.375ZM128.156 181.206C128.127 181.008 128.153 180.781 128.327 180.592C129.278 179.638 131.474 177.522 133.254 177.496C134.58 176.606 135.889 175.74 137.267 174.923C137.865 174.589 138.496 175.407 137.926 175.797C135.754 177.261 133.811 179.034 131.639 180.498C140.544 178.363 149.605 173.77 155.2 166.902C158.076 163.386 157.713 156.14 151.431 157.92C148.748 158.69 146.242 160.224 143.986 161.802C138.927 165.364 135.329 170.146 131.646 174.9C135.241 172.653 139.053 170.638 142.237 167.947C142.885 167.403 143.608 168.43 142.999 168.968C138.504 172.911 133.16 176.334 127.927 179.416C127.494 179.907 127.101 180.392 126.645 180.867C126.596 181.077 126.563 181.264 126.514 181.475C127.052 181.414 127.601 181.29 128.134 181.189L128.156 181.206ZM117.084 209.688C115.651 200.596 112.845 192.218 106.166 185.459C102.936 182.195 96.5205 177.181 92.3148 181.831C90.1049 184.254 92.6236 188.578 93.9057 190.758C98.5576 198.735 105.834 204.349 112.929 209.97C112.756 209.632 112.583 209.293 112.433 208.97C109.394 204.826 105.836 201.003 103.61 196.472C103.409 196.076 103.989 195.623 104.321 195.938C106.595 198.11 108.708 200.549 110.663 203.154C110.655 202.972 110.586 202.78 110.596 202.576C110.54 201.266 112.148 200.902 112.724 202.031C114.124 204.72 114.932 207.924 117.014 210.165C117.053 210.017 117.108 209.847 117.147 209.699L117.084 209.688ZM146.88 199.106C149.734 195.714 149.999 189.002 143.222 189.924C140.044 190.363 136.883 192.26 134.345 194.123C127.736 198.974 124.289 207.039 119.189 213.284C119.084 213.665 118.979 214.046 118.897 214.444C128.884 213.565 140.935 206.209 146.926 199.139L146.88 199.106ZM183.233 184.269C185.144 179.194 165.534 195.458 165.805 195.235C161.504 199.392 157.742 204.158 154.001 208.799C143.459 221.849 133.631 235.602 122.454 248.078C131.69 239.809 141.127 231.793 150.722 224.423C155.046 221.093 159.638 218.595 164.369 216.624C172.753 206.739 178.611 196.506 183.239 184.308L183.233 184.269ZM152.358 254.738C145.8 256.032 139.526 257.994 133.073 259.718C143.58 258.517 155.046 258.165 164.898 259.618C169.378 260.281 197.674 272.273 197.683 276.896C197.632 261.917 177.504 247.88 164.169 245.654C163.529 245.852 162.884 246.01 162.284 246.202C161.973 246.29 161.762 246.099 161.726 245.861C151.877 249.132 141.795 251.668 132.215 255.913C127.807 257.877 120.524 260.01 114.074 262.83C120.679 260.23 127.623 259.75 134.437 257.869C140.357 256.246 146.114 253.409 152.38 253.944C152.874 253.991 152.811 254.649 152.381 254.755L152.358 254.738ZM122.969 257.938C133.157 253.824 142.925 248.943 153.478 245.768C164.359 242.482 175.052 239.022 184.166 231.826C187.103 229.517 189.625 226.48 192.144 223.686C192.56 223.218 202.045 209.07 198.841 209.878C186.874 212.821 175.19 214.28 163.71 219.238C151.867 224.352 142.897 233.98 133.503 242.415C127.646 247.68 121.531 252.578 115.496 257.606C122.013 253.215 129.103 249.67 135.991 245.731C147.47 239.151 158.586 231.105 171.403 227.345C171.77 227.228 171.973 227.765 171.634 227.938C160.825 233.18 150.563 239.353 140.088 245.193C129.952 250.861 119.27 255.738 110.202 262.968C114.671 260.874 119.571 259.343 122.992 257.955L122.969 257.938ZM144.121 288.166C148.552 278.959 131.4 283.293 129.04 283.913C123.306 285.427 117.917 288.147 112.853 291.142C106.722 294.725 101.325 299.413 95.6644 303.695C100.654 300.609 106.782 298.082 111.868 299.261C112.647 299.448 112.965 300.211 112.522 300.906C112.253 301.271 111.938 301.603 111.645 301.951C112.27 302.06 112.562 303.05 111.815 303.345C110.883 303.75 109.898 304.081 108.914 304.412C104.631 307.208 98.6769 308.066 94.0177 309.175C92.9986 309.41 92.6054 307.746 93.55 307.421C97.4703 306.119 101.524 305.163 105.479 303.957C107.056 303.253 108.495 302.305 109.687 301.071C103.082 300.709 96.932 306.18 90.9986 308.252C90.4217 308.461 90.0244 307.71 90.498 307.354C90.5316 307.309 90.5653 307.263 90.6218 307.234C89.6626 307.866 88.7034 308.497 87.7153 309.072C107.499 309.817 134.439 308.123 144.059 288.155L144.121 288.166ZM63.7367 368.665C63.7632 368.438 63.8751 368.239 64.1407 368.117C66.0831 367.013 68.1467 366.174 70.1239 365.166C70.7284 364.872 71.2197 365.305 71.3431 365.854C72.1232 365.513 72.92 365.149 73.7457 364.842C74.5882 364.512 75.103 365.773 74.2665 366.142C72.6331 366.876 71.0465 367.785 69.436 368.535C79.8311 368.344 90.8174 368.308 97.6373 360.018C102.008 354.714 96.5675 351.723 92.0437 351.311C88.6722 351.009 85.7096 352.206 82.634 353.462C74.9168 356.614 68.9364 361.33 62.3648 365.891C61.868 366.899 61.3711 367.907 60.8743 368.915C61.8152 368.833 62.7789 368.769 63.7427 368.705L63.7367 368.665ZM53.3437 366.989C53.4388 368.962 53.2791 370.994 53.0341 372.998C53.7336 370.378 54.3082 367.736 54.7242 365.118C55.4053 360.898 55.4329 356.514 54.1807 352.383C53.0856 348.756 46.8643 343.145 43.9212 348.233C40.9 353.475 43.1206 362.408 44.1798 367.947C45.0677 372.619 46.4303 377.078 47.8951 381.541C47.7682 378.417 47.6413 375.293 47.8148 372.144C47.8391 371.633 48.2862 371.505 48.6502 371.632C48.7056 371.462 48.7213 371.297 48.7766 371.126C48.9536 370.552 49.7946 370.75 49.8724 371.265C50.3083 374.018 50.3091 376.979 50.2247 379.912C50.6425 378.247 50.7528 376.425 50.9398 374.977C51.3042 372.286 51.2757 369.411 52.2251 366.834C52.408 366.299 53.3164 366.405 53.3437 366.989ZM72.8303 335.27C77.3348 324.673 70.5618 308.154 66.1268 298.926C60.0018 286.162 53.3621 274.287 48.0726 261.011C46.1454 256.171 45.1569 250.967 43.6768 245.998C39.7655 232.717 36.7851 244.544 35.2279 251.289C32.5192 263.035 33.4297 274.842 37.9863 285.815C41.9504 287.894 45.7979 290.274 49.4037 292.934C52.7584 295.408 56.2101 298.659 59.4044 302.355C57.2348 299.133 55.0881 295.929 53.2021 292.705C47.6066 283.045 42.4465 272.507 43.0595 261.119C43.0849 260.75 43.6184 260.791 43.6891 261.125C46.6521 277.125 53.3786 290.65 62.244 304.238C66.912 311.382 73.4637 319.316 72.4975 328.364C72.8676 330.681 72.9937 332.994 72.8135 335.293L72.8303 335.27ZM-8.33398 321.139C-19.3104 327.42 -3.44861 328.514 2.18295 329.144C10.1479 330.05 18.5142 328.645 26.3302 327.222C35.9643 325.484 51.5065 319.893 61.8666 324.575C59.8692 323.031 57.6121 321.648 55.2649 320.339C47.2838 318.117 39.8482 318.164 31.4494 319.757C23.9567 321.172 16.3667 324.63 8.70779 324.407C8.21994 324.399 8.19148 323.674 8.59292 323.512C17.0901 320.018 27.2458 318.242 36.3211 316.831C40.0884 316.262 43.9384 316.107 47.6631 316.599C41.8235 314.054 35.9536 311.979 31.4353 310.126C31.3511 310.24 31.1817 310.327 31.0003 310.334C16.4464 310.381 4.31318 313.835 -8.32314 321.077L-8.33398 321.139ZM-8.49009 285.044C-1.53465 295.249 14.1543 300.303 24.9686 305.039C36.8473 310.242 59.8716 316.196 69.086 328.737C65.8759 323.057 60.04 318.118 55.6994 314.352C45.6707 305.685 32.8044 302.537 21.3384 296.44C20.9624 296.234 21.191 295.733 21.5946 295.854C36.9402 300.514 51.1758 306.821 62.4923 318.376C65.2713 321.201 69.2644 325.486 71.3479 330.018C68.9984 312.709 53.8902 297.935 38.7222 289.212C38.524 289.242 38.3197 289.233 38.1708 289.052C38.0795 288.985 38.0387 288.849 37.9414 288.742C37.252 288.339 36.5288 287.982 35.8224 287.602C35.6204 287.876 35.1038 287.812 35.0836 287.409C35.0716 287.33 35.0368 287.234 35.0248 287.155C33.7263 286.479 32.4565 285.859 31.1759 285.302C27.9371 283.864 -14.8091 275.696 -8.45043 285.038L-8.49009 285.044Z" fill="#F7F9F7"/>
<path d="M121.676 212.3C122.648 210.409 123.876 209.271 125.825 208.348C126.243 208.163 126.54 208.382 126.707 208.681C127.834 207.822 128.916 206.928 129.918 205.905C130.604 205.213 131.797 206.128 131.117 206.86C128.737 209.368 126 211.789 122.973 213.504C122.747 213.619 122.503 213.615 122.254 213.572C121.999 213.631 121.744 213.689 121.5 213.686C121.075 213.689 120.68 213.221 121.028 212.844C121.236 212.61 121.456 212.455 121.693 212.277L121.676 212.3Z" fill="#6A9466" fill-opacity="0.05"/>
<path d="M119.186 303.003C120.723 302.305 122.238 301.589 123.781 300.93C124.278 300.734 124.715 301.479 124.253 301.772C122.898 302.605 121.612 303.489 120.222 304.226C118.833 304.963 117.292 305.905 115.675 305.804C115.164 305.78 115.079 305.083 115.423 304.808C116.511 303.954 117.954 303.574 119.186 303.003Z" fill="#6A9466" fill-opacity="0.05"/>
<path d="M139.305 230.203C146.115 222.117 153.849 213.973 162.169 207.424C162.479 207.195 162.908 207.617 162.65 207.92C155.32 215.658 147.663 223.506 139.717 230.648C139.469 230.888 139.103 230.477 139.311 230.242L139.305 230.203Z" fill="#6A9466" fill-opacity="0.05"/>
<path d="M160.689 228.921C165.749 225.359 171.669 223.066 177.344 220.627C178.051 220.338 178.457 221.412 177.796 221.735C172.252 224.377 166.814 227.307 161.132 229.706C160.674 229.897 160.289 229.225 160.712 228.938L160.689 228.921Z" fill="#6A9466" fill-opacity="0.05"/>
<path d="M172.959 252.703C173.691 252.714 173.536 253.833 172.81 253.861C169.378 253.832 165.873 253.184 162.479 252.865C162.15 252.834 162.118 252.352 162.406 252.248C165.721 251.098 169.55 252.69 172.959 252.703Z" fill="#6A9466" fill-opacity="0.05"/>
<path d="M179.535 246.559C178.632 246.35 177.724 246.244 176.825 245.934C176.376 245.779 176.632 245.192 177.018 245.195C183.582 245.421 190.262 248.164 196.612 250.592C197.153 250.145 197.94 249.986 198.755 250.552C200.181 251.534 201.492 252.289 202.878 253.276C203.152 253.478 203.313 253.738 203.411 253.987C203.525 254.071 203.639 254.155 203.776 254.256C205.408 255.531 203.781 258.453 201.884 257.442C201.747 257.341 201.61 257.24 201.457 257.162C201.434 257.145 201.411 257.128 201.388 257.111C199.571 256.087 198.052 254.897 196.543 253.361C196.04 252.848 195.933 252.276 195.991 251.72C193.853 250.988 191.686 250.342 189.695 249.507C186.775 248.305 183.84 247.268 180.766 246.515C180.533 246.449 180.198 246.378 179.834 246.25C179.841 246.432 179.74 246.569 179.529 246.519L179.535 246.559Z" fill="#6A9466" fill-opacity="0.05"/>
<path d="M47.5444 304.53C47.8183 304.732 47.5272 305.222 47.2197 305.066C40.5469 301.166 33.4723 298.097 26.7718 294.282C26.3958 294.075 26.6184 293.534 27.0449 293.673C34.3915 295.991 41.1193 300.39 47.5444 304.53Z" fill="#6A9466" fill-opacity="0.05"/>
<path d="M41.6468 268.957C41.3384 277.258 45.3232 285.519 49.9759 292.158C50.108 292.361 49.8483 292.522 49.6826 292.364C43.7512 286.121 40.5909 277.411 41.0052 268.872C41.0415 268.44 41.6662 268.549 41.6468 268.957Z" fill="#6A9466" fill-opacity="0.05"/>
<path d="M64.2999 272.453C64.8417 274.967 64.642 277.674 64.0038 280.163C63.9051 280.584 63.2238 280.504 63.3226 280.084C63.8923 277.544 63.5548 275.04 63.7724 272.451C63.8038 272.122 64.258 272.175 64.2999 272.453Z" fill="#6A9466" fill-opacity="0.05"/>
<path d="M8.48532 322.129C8.1909 322.193 8.00009 321.735 8.28255 321.591C11.7262 319.55 15.7966 318.571 19.5055 317.078C20.1726 316.795 20.5781 317.869 19.9279 318.13C16.2358 319.6 12.409 321.252 8.50815 322.145L8.48532 322.129Z" fill="#6A9466" fill-opacity="0.05"/>
</g>
<defs>
<clipPath id="clip0_176_2519">
<rect width="217.966" height="502.292" fill="white" transform="matrix(-0.804738 -0.59363 -0.59363 0.804738 310.58 129.391)"/>
</clipPath>
</defs>
</svg>
