<svg width="317" height="624" viewBox="0 0 317 624" fill="none" xmlns="http://www.w3.org/2000/svg">
<path d="M27.3958 147.486C33.1966 141.934 42.5702 143.299 50.9098 146.698C49.9867 145.89 49.1017 145.066 48.252 144.314C44.4231 140.946 36.5657 134.563 38.4384 128.7C40.6689 121.658 51.7075 127.909 54.7233 130.266C56.1072 131.356 57.5308 132.672 58.9412 134.104C56.5571 128.209 55.5228 121.846 56.5956 114.854C56.6792 114.308 57.247 113.9 57.8325 114.104C65.8491 117.026 69.1842 123.739 70.5209 131.208C72.0967 122.907 78.1115 115.975 87.0701 110.435C87.6071 110.107 88.5432 110.222 88.6036 110.971C89.1433 117.798 88.1057 124.286 86.2463 130.609C87.6679 129.378 89.135 128.193 90.5112 126.915C90.85 126.609 91.3299 126.595 91.776 126.751C91.9946 126.676 92.2308 126.637 92.4157 126.732C92.5727 126.817 92.7679 126.885 92.9352 126.944C93.3534 127.09 93.5575 127.464 93.5634 127.86C93.1311 138.865 88.7993 153.023 77.1773 157.512C77.1377 157.862 77.0219 158.245 76.6551 158.542C81.2487 162.966 85.4697 167.866 89.4076 173.091C89.9623 173.376 90.4304 173.721 90.7459 174.135C90.925 174.41 90.9163 174.679 90.7402 174.891C93.9178 179.214 96.9018 183.712 99.7405 188.342C98.7198 183.59 99.2984 178.214 102.99 175.108C103.405 174.768 104.105 174.922 104.334 175.396C106.476 180.358 106.246 186.553 102.862 190.918C102.95 191.676 103.049 192.408 103.053 193.137C103.047 193.316 102.968 193.44 102.899 193.538C110.974 207.423 117.951 222.107 124.851 235.673C125.061 235.868 125.233 236.079 125.443 236.274C125.625 236.459 125.57 236.682 125.443 236.85C126.309 238.547 127.157 240.207 128.016 241.841C129.206 243.682 130.206 245.607 130.89 247.696C131.532 249.072 132.249 250.414 132.863 251.78C131.04 240.473 131.736 228.863 132.833 217.364C133.42 211.142 133.95 204.658 134.612 198.16C132.423 196.698 131.005 193.474 130.111 191.192C129.104 188.627 128.912 185.832 130.075 183.298C130.388 182.649 131.249 182.465 131.767 183.01C133.609 185.048 134.726 187.984 135.459 190.605C136.555 181.742 138.11 172.918 140.75 164.565C140.155 164.63 139.497 164.369 139.304 163.635C139.105 162.838 138.905 162.041 138.705 161.243C138.491 160.32 138.353 159.362 138.166 158.448C127.424 151.179 120.305 133.899 129.364 123.817C129.91 123.219 130.94 123.913 130.412 124.546C122.327 134.151 129.625 146.764 137.617 155.103C137.427 153.703 137.276 152.286 137.162 150.852C137.045 150.417 137.004 149.948 137.042 149.355C137.058 149.149 137.165 149.035 137.282 148.894C130.725 140.116 129.622 127.18 134.467 117.778C134.697 117.343 135.221 117.132 135.682 117.415C139.061 119.565 140.485 122.609 141.351 126.034C142.607 122.108 144.145 118.431 145.534 115.309C145.699 114.882 146.357 114.566 146.787 114.929C151.416 118.85 153.436 124.375 152.818 130.101C155.243 128.068 164.965 121.613 165.234 127.497C165.834 126.676 166.368 125.862 166.791 125.009C167.162 124.29 168.104 124.225 168.532 124.92C173.772 133.753 165.402 153.898 153.965 156.753C158.39 157.086 162.802 156.385 166.856 154.557C169.603 153.334 171.843 151.207 173.215 148.624C174.906 145.456 173.714 142.221 173.349 138.971C173.316 138.565 173.853 138.237 174.15 138.614C178.015 143.784 175.69 150.247 171.062 154.147C165.883 158.491 158.066 159.247 151.733 157.459C151.538 157.39 151.467 157.244 151.445 157.055C150.872 157.067 150.288 157.105 149.689 157.017C148.275 158.888 147.063 160.889 145.942 162.984C145.403 163.977 143.84 163.765 143.898 162.542C143.919 162.489 143.929 162.462 143.922 162.399C143.699 162.321 143.545 162.146 143.467 161.937C138.934 177.935 135.705 195.48 134.448 213.077C135.832 206.922 138.233 201.001 141.58 195.168C149.042 182.164 163.743 180.691 174.431 171.39C175.05 170.849 175.897 171.69 175.473 172.3C166.995 184.162 163.456 198.233 156.653 210.923C149.458 224.384 137.953 233.096 134.879 248.755C135.283 252.807 135.829 256.818 136.521 260.697C140.005 270.068 142.551 279.658 144.125 289.393C149.38 279.497 154.507 269.527 159.522 259.517C157.923 254.048 158.573 247.333 161.656 242.681C162.08 242.071 162.909 242.3 163.25 242.813C164.117 244.177 164.766 246.193 165.065 248.298C170.985 236.179 176.692 223.956 182.047 211.579C183.377 208.528 184.641 205.483 185.85 202.419C182.817 196.813 183.268 188.725 185.695 183.147C186 182.435 186.998 182.389 187.371 183.065C188.962 186.167 189.605 189.514 189.487 192.868C191.002 188.759 192.433 184.622 193.799 180.491C193.763 180.418 193.728 180.345 193.769 180.238C201.693 155.906 197.572 129.67 191.529 105.309C186.974 86.9538 177.587 70.0636 177.097 51.0069C175.718 53.5262 175.001 56.2161 175.113 59.135C174.766 62.5908 174.579 66.0417 174.551 69.488C174.27 79.6054 175.742 89.8503 177.828 99.7336C181.392 116.469 190.856 131.264 196.073 147.486C196.278 148.103 195.264 148.355 194.962 147.825C178.646 115.631 165.491 79.9031 176.281 43.9923C176.492 43.2779 177.726 43.1937 177.984 43.9205C184.516 61.3288 195.109 76.9731 200.926 94.6774C206.665 112.173 205.386 131.884 200.905 149.477C200.81 149.808 200.515 149.917 200.205 149.9C200.24 153.761 200.114 157.628 199.613 161.485C205.942 139.657 211.115 117.547 216.625 95.4635C214.414 90.5988 213.603 84.3134 214.792 79.242C214.955 78.5714 215.894 78.5963 216.276 79.0024C217.885 80.6562 218.768 82.7226 219.279 84.9322C220.739 79.319 222.228 73.7157 223.799 68.1415C223.6 67.9202 223.469 67.6017 223.697 67.2568C223.893 66.992 224.079 66.7539 224.248 66.4794C224.377 65.9789 224.544 65.4613 224.673 64.9608C220.591 61.5943 217.925 56.2676 218.759 51.1328C218.483 50.9455 218.217 50.7314 217.941 50.5441C204.044 54.7828 192.568 39.7091 180.033 36.6941C179.305 36.5307 179.202 35.646 179.529 35.1237C183.723 28.4042 192.438 29.5088 199.003 32.2572C194.354 25.5097 193.69 17.8512 192.299 10.0293C192.155 9.25152 192.935 8.70523 193.708 8.91477C200.442 10.8127 207.55 13.0535 211.071 18.952C211.379 14.1182 212.692 9.54518 215.145 5.79439C215.373 5.44944 216.023 5.40371 216.237 5.7514C216.595 6.30091 216.774 6.57566 216.935 6.81395C216.956 6.76049 216.966 6.73377 216.987 6.68031C217.416 4.16276 216.232 3.29431 217.08 1.49886C217.251 1.13442 217.618 0.838166 218.077 0.877369C226.554 1.77758 229.691 8.51185 230.529 15.716C233.038 11.4087 236.167 7.37891 238.629 3.0254C238.898 2.57354 239.614 2.52056 240.009 2.81005C247.734 8.05523 246.738 16.7406 244.014 24.4892C249.246 19.1023 255.704 14.7199 262.574 11.5725C263.232 11.257 263.91 11.797 263.908 12.4629C263.679 22.1137 260.979 30.8709 255.196 37.6111C261.297 34.9832 267.937 33.4227 274.447 32.9387C275.163 32.8857 275.589 33.671 275.018 34.1688C267.586 40.7572 264.095 49.8444 255.565 55.5037C251.357 58.3078 245.573 59.2881 240.018 60.1665C238.692 62.2193 236.996 64.0822 234.854 65.2132C232.501 66.4827 228.912 67.5933 226.289 66.4347L226.269 66.4881C222.59 82.2392 219.089 98.0219 215.41 113.773C218.011 110.377 220.84 107.212 222.785 103.466C220.533 105.953 219.258 109.024 217.029 111.701C216.666 112.15 215.954 111.78 216.132 111.236C217.399 106.95 220.535 102.407 224.422 99.9456C225.122 99.5232 226.026 100.051 225.756 100.836C223.835 106.743 219.618 112.121 214.814 116.232C210.985 132.537 206.896 148.781 202.061 164.826C203.606 163.85 205.38 163.348 207.206 163.864C207.718 164.013 207.961 164.613 207.787 165.068C206.187 168.904 202.933 172.436 200.062 175.464C199.537 176.008 198.901 176.757 198.171 177.259C195.563 185.2 192.761 193.072 189.659 200.901C186.824 208.034 183.821 215.109 180.735 222.155C183.102 219.617 185.888 217.468 188.794 216.24C189.509 215.944 190.511 216.628 190.12 217.401C186.715 224.123 181.44 229.707 175.467 234.471C175.342 234.549 175.248 234.546 175.106 234.587C165.707 254.857 155.426 274.789 144.803 294.541C144.946 295.651 145.089 296.762 145.231 297.873C156.554 280.579 172.929 266.353 189.137 252.888C189.115 252.698 189.177 252.538 189.322 252.407C189.25 249.714 190.735 246.505 191.72 244.272C192.988 241.381 194.942 238.516 198.012 237.194C198.726 236.898 199.602 237.416 199.52 238.206C199.222 241.042 198.359 243.863 196.97 246.409C198.361 245.258 199.752 244.107 201.115 242.946C209.047 236.29 216.453 229.359 223.548 222.168C223.464 222.139 223.401 222.056 223.366 221.983C220.621 217.356 223.982 209.678 226.208 205.364C226.51 204.742 227.656 204.475 227.94 205.302C229.459 209.743 228.696 214.448 226.883 218.755C243.215 201.757 257.599 183.41 270.872 163.675C270.736 162.96 270.599 162.246 270.49 161.541C269.57 160.067 269.179 158.203 269.34 156.713C264.342 154.331 259.674 150.76 255.951 147.034C253.83 144.898 249.281 137.065 255.705 136.641C256.157 136.617 256.612 137.079 256.26 137.502C254.627 139.448 253.302 140.015 254.661 142.733C255.834 145.114 258.204 147.094 260.246 148.777C263.137 151.212 266.414 153.63 269.927 155.433C265.733 152.028 262.066 147.412 259.649 143.415C255.643 136.802 253.346 129.694 255.256 122.086C255.385 121.585 255.972 121.457 256.401 121.576C263.506 123.331 266.468 127.639 268.2 132.761C267.879 126.435 269.175 120.097 272.804 114.272C273.073 113.82 273.849 113.94 274.032 114.368C276.286 119.368 277.752 124.276 278.707 129.612C281.468 123.907 285.797 118.811 291.165 114.715C291.57 114.402 292.186 114.526 292.415 115C295.455 121.246 294.71 128.291 291.681 134.447C296.609 131.167 301.964 128.339 306.02 125.603C306.452 125.3 307.232 125.329 307.419 125.91C310.73 134.827 305.735 144.207 297.935 149.697C304.003 149.21 310.149 149.842 314.465 150.955C315.098 151.116 315.288 151.94 314.915 152.416C305.983 164.392 290.438 165.509 276.622 162.289C276.455 162.23 276.346 162.101 276.304 161.965C276.116 161.96 275.908 162.009 275.73 161.977C275.198 161.882 274.949 161.128 275.539 160.91C276.691 160.464 277.841 159.774 279.022 159.005C279.094 158.817 279.239 158.686 279.329 158.536C277.976 159.094 276.631 159.715 275.338 160.446C275.328 160.472 275.262 160.48 275.224 160.497C275.203 160.55 275.193 160.577 275.172 160.63C274.895 161.352 274.222 161.541 273.616 161.39C273.437 161.691 273.23 161.983 273.051 162.284C273.08 162.537 273.082 162.78 273.111 163.032C273.101 163.059 273.146 163.105 273.136 163.132C273.136 163.132 273.136 163.132 273.126 163.159C273.105 163.212 273.141 163.285 273.13 163.312C273.213 164.25 272.266 164.738 271.597 164.504C265.514 173.837 259.231 182.949 252.563 191.745C252.629 191.738 252.706 191.704 252.789 191.733C256.832 193.145 262.142 191.424 263.756 187.47C262.193 187.834 260.718 188.38 259.276 189.088C257.633 189.909 256.163 191.184 254.351 191.703C253.781 191.867 253.401 191.128 253.715 190.723C254.836 189.204 256.792 188.311 258.483 187.447C260.491 186.421 262.656 185.722 264.922 185.423C265.45 185.365 266.085 185.768 265.964 186.332C264.866 192.072 257.848 195.44 252.427 192.758C252.232 192.69 252.144 192.508 252.112 192.345C241.86 205.861 230.711 218.668 218.043 230.49C223.305 227.327 228.589 224.111 233.991 220.996C256.611 202.859 285.007 188.044 314.987 198.003C315.572 198.207 315.383 199.111 314.746 199.04C298.329 196.912 284.291 195.918 268.404 201.796C259.119 205.221 250.827 210.509 242.787 216.127C264.636 204.36 287.864 195.59 313.699 199.462C314.242 199.531 314.18 200.267 313.645 200.262C293.004 200.568 275.612 202.707 256.585 210.914C248.625 214.347 241 218.473 233.463 222.782C233.376 222.843 233.29 222.904 233.203 222.964C243.494 218.072 255.524 218.121 266.766 216.926C284.309 215.052 299.802 207.157 315.574 200.178C316.146 199.923 316.534 200.726 315.979 201.017C304.089 207.109 292.057 212.666 279.101 216.264C263.707 220.526 247.633 219.73 232.25 224.541C231.889 224.657 231.585 224.46 231.528 224.198C231.393 224.302 231.22 224.424 231.057 224.518C230.873 224.666 230.678 224.598 230.532 224.486C225.168 227.584 219.839 230.754 214.513 233.835C199.003 247.786 183.253 260.715 168.872 274.939C172.895 272.616 178.651 271.626 182.793 272.861C183.584 273.107 183.656 274.072 183.086 274.57C179.007 278.026 172.215 280.23 166.959 278.272C166.513 278.117 166.451 277.701 166.64 277.373C166.612 277.363 166.584 277.353 166.567 277.317C159.123 284.841 152.015 292.725 145.587 301.392C146.082 307.264 146.192 313.153 146.066 319.081C147.118 314.447 149.467 309.568 154.21 307.921C154.866 307.696 155.755 308.097 155.645 308.877C154.913 313.502 151.611 319.381 146.817 321.405C146.697 321.636 146.566 321.893 146.418 322.114C146.329 322.265 146.159 322.296 146.009 322.274C145.702 329.412 144.971 336.583 143.771 343.742C143.331 346.287 142.836 348.812 142.302 351.353C143.958 345.808 145.874 340.324 148.035 334.865C153.074 322.075 162.019 312.62 169.117 300.973C169.644 300.096 171.118 300.703 171.013 301.636C167.708 328.764 154.239 352.795 135.975 373.424C128.582 394.152 117.568 413.767 104.752 431.904C117.881 420.94 134.212 412.671 149.829 405.274C151.176 402.591 152.606 399.938 154.026 397.312C154.086 387.936 152.537 377.149 159.558 369.902C160.17 369.297 161.101 369.592 161.12 370.447C161.25 373.402 161.806 376.234 162.22 379.107C163.801 374.415 165.577 369.792 167.076 365.313C167.292 364.752 168.149 364.415 168.642 364.86C174.547 369.985 174.785 378.01 171.824 384.978C177.668 381.291 184.612 379.018 191.451 378.255C192.112 378.182 192.658 378.737 192.421 379.352C190.405 385.013 185.549 389.834 180.925 393.887C181.171 393.821 181.456 393.739 181.702 393.674C186.205 392.488 195.48 390.818 198.263 396.004C202.281 403.409 193.947 405.924 185.276 406.35C186.447 406.759 187.534 407.139 188.441 407.577C196.574 411.268 194.702 418.283 189.222 423.492C188.621 424.07 187.678 423.559 187.493 422.888C184.789 412.97 168.081 410.528 159.269 408.935C158.653 408.811 158.753 408.058 159.365 408.029C168.703 407.593 184.665 411.563 188.944 420.758C190.982 418.499 192.836 415.812 191.42 412.832C190.049 409.897 185.604 408.708 182.678 407.928C176.331 406.257 170.452 407.567 164.125 407.327C163.965 407.332 163.846 407.23 163.744 407.164C160.361 407.74 156.888 407.891 153.962 407.111L153.727 407.393C153.102 408.114 152.088 407.791 151.761 407.161C151.483 407.307 151.136 407.306 150.829 407.199C150.563 407.561 150.343 407.969 150.078 408.331C149.537 409.082 148.11 408.432 148.543 407.552C148.594 407.419 148.684 407.268 148.763 407.144C140.638 411.338 132.653 415.824 124.914 420.577C115.467 426.401 107.406 433.801 98.5405 440.252C98.0886 440.852 97.6368 441.452 97.185 442.052C94.5048 445.572 91.6779 448.98 88.8054 452.342C110.374 436.778 140.611 424.333 163.131 432.717C164.024 433.028 164.069 434.227 163.21 434.654C149.154 441.444 136.858 453.366 121.707 457.986C109.205 461.802 95.1402 461.618 82.7507 465.717C80.1245 467.285 77.5085 468.826 74.8368 470.348C74.4348 470.571 74.1148 470.005 74.4155 469.716C74.8028 469.366 75.2078 469.053 75.6127 468.74C74.2643 469.451 72.9233 470.225 71.6351 471.109C64.6901 478.323 57.6467 485.38 50.8132 492.633C51.6539 492.502 52.4947 492.371 53.3458 492.214C55.9821 490.043 59.4286 488.398 62.3924 486.856C65.6818 485.126 69.4101 483.488 73.234 483.823C74.0587 483.899 74.7118 484.916 74.0795 485.574C68.2656 491.818 57.8848 495.133 49.1965 494.372C38.7467 505.605 28.9016 517.322 20.9202 530.691C20.1078 533.135 19.3614 535.572 18.615 538.01C22.3924 532.539 27.6548 527.648 33.4918 527.353C34.5835 527.31 35.1838 528.217 34.6749 529.13C30.6058 536.348 24.7045 545.866 15.6895 547.931C8.87377 572.013 4.3502 596.715 1.92074 622.633C1.83288 623.602 0.409526 623.439 0.38292 622.52C-0.291292 603.035 1.83277 583.922 6.0141 565.133C0.712445 556.461 -2.34813 542.447 2.46899 533.612C2.79901 532.999 3.78059 532.584 4.29282 533.309C8.7855 539.395 8.29669 546.348 8.9275 553.268C13.2033 537.362 18.8438 521.69 25.4454 506.232C22.3038 498.193 23.7957 488.711 25.2924 480.534C25.4404 479.737 26.5672 479.191 27.1807 479.981C28.3446 481.479 30.0407 488.589 30.5041 494.874C31.0189 493.781 31.5162 492.651 32.031 491.558C36.2981 476.497 40.0679 461.415 43.3783 446.293C37.0659 431.113 33.484 414.917 29.1641 399.161C22.8561 376.313 16.7434 354.11 14.8989 330.428C14.8239 329.553 15.779 328.795 16.6346 329.367C40.2766 345.781 50.7762 373.275 52.0579 400.975C53.8929 389.612 55.4946 378.198 56.929 366.725C56.8982 366.805 56.8674 366.885 56.7808 366.946C56.5535 367.291 55.9122 367.067 55.9723 366.663C56.2961 364.503 56.9046 362.26 57.7744 360.078C58.564 353.412 59.27 346.717 59.9203 340.003C55.3149 335.362 51.9196 328.477 51.493 322.508C51.4282 321.606 52.3012 321.062 53.1039 321.525C56.5555 323.488 59.0786 327.128 60.7124 330.943C61.1283 326.238 61.5823 321.516 61.9247 316.755C61.9247 316.755 61.9247 316.755 61.8689 316.736C59.4326 313.611 57.4569 310.193 55.5091 306.784C55.6515 307.319 55.794 307.853 55.8806 308.369C55.96 308.821 55.3393 309.119 55.0414 308.742C54.3369 307.86 53.8818 306.822 53.503 305.75C44.6427 303.048 36.5616 292.556 32.6661 286.314C32.2198 285.582 33.15 284.725 33.9204 285.025C39.1841 287.045 44.2163 290.41 48.9095 294.081C44.2831 286.614 40.9213 278.407 39.4333 270.096C39.3144 269.418 39.9893 268.896 40.6584 269.13C48.4637 271.614 52.8975 277.195 55.7865 283.752C56.215 276.05 59.2187 268.642 65.1385 263.768C65.6403 263.368 66.3579 263.558 66.6602 264.088C69.7941 269.76 70.9516 276.379 70.652 283.004C72.6999 280.142 75.2056 277.653 78.275 275.754C80.5858 274.349 91.5651 269.969 92.0592 275.598C92.6856 282.941 87.4264 289.47 82.7231 294.799C87.6003 293.381 92.8343 293.421 96.4562 295.929C96.8334 296.182 96.9861 296.69 96.8497 297.127C93.1348 307.046 78.9586 314.067 68.2302 310.713C66.9158 312.406 65.5104 314.006 64.0389 315.614C63.9319 315.729 63.8277 315.753 63.6956 315.767C63.6648 315.847 63.634 315.928 63.6032 316.008C63.615 316.224 63.5607 316.448 63.461 316.625C63.2025 323.143 62.8296 329.712 62.4566 336.281L62.4816 336.381C62.4816 336.381 62.4905 336.687 62.4112 336.811C62.3468 337.637 62.3 338.5 62.2356 339.326C62.8565 340.18 63.4392 341.05 64.0116 341.947C64.3697 342.497 63.5246 343.05 63.0462 342.732C62.697 342.488 62.3961 342.201 62.0571 341.931C61.7996 345.812 61.5802 349.677 61.2845 353.575C63.6008 350.261 66.4866 347.359 69.8728 345.541C70.4274 345.25 71.1818 345.756 71.1056 346.366C70.238 352.247 65.347 358.147 60.5877 362.304C59.9581 369.541 59.2346 376.776 58.4172 384.008C60.5645 379.241 63.6905 374.725 67.9438 371.967C68.4427 371.657 69.3128 371.779 69.3658 372.464C69.9598 379.068 63.8556 386.727 57.8358 390.05C57.7844 390.183 57.7155 390.28 57.6363 390.404C55.3756 408.803 52.3945 427.101 48.3685 445.156C48.5585 448.86 48.8805 452.55 49.5606 456.213C49.7016 457.081 48.3121 457.323 48.1711 456.455C48.0447 455.714 47.9668 454.928 47.8405 454.187C47.5148 454.376 47.0555 454.337 46.8441 453.9C46.7384 453.681 46.6503 453.499 46.5725 453.289C45.0609 459.612 43.3996 465.913 41.6091 472.138C52.2948 451.318 64.1236 430.896 75.9408 410.834C75.9408 410.834 75.9511 410.808 75.9335 410.771C75.8527 410.652 75.8278 410.552 75.8131 410.426C73.5651 402.365 74.1338 391.5 79.782 385.44C80.269 384.913 81.3636 384.78 81.6749 385.616C83.1429 389.615 83.628 394.362 82.9921 398.899C91.5572 384.34 100.002 370.011 107.822 355.828C112.145 348.032 116.45 340.2 120.773 332.404C118.582 326.333 118.758 318.301 121.508 312.623C121.862 311.868 123.168 311.596 123.504 312.532C124.742 315.814 125.717 319.944 125.487 323.835C130.93 313.945 136.308 304.062 141.65 294.106C140.488 285.606 138.627 277.196 136.113 268.921C135.887 268.933 135.616 268.899 135.465 268.634C133.853 266.161 129.912 264.238 126.711 263.514C127.295 265.204 128.053 266.772 129.22 268.18C131.038 270.361 133.399 270.883 135.823 272.063C136.434 272.367 136.569 273.415 135.683 273.499C129.601 274.103 125.378 267.232 124.246 262.441C124.096 261.843 124.698 261.265 125.307 261.326C128.696 261.722 132.821 263.497 135.272 266.172C133.29 260.053 130.968 253.997 128.246 248.075C126.684 244.65 124.998 241.302 123.245 237.962C118.727 232.928 113.057 228.673 107.869 224.314C95.581 213.989 83.5883 205.858 68.8109 198.968C68.1902 198.69 68.5113 197.772 69.1908 197.979C85.8563 203.165 98.4996 214.129 111.272 225.17C114.363 227.826 117.725 230.516 120.827 233.388C120.792 233.315 120.747 233.269 120.739 233.206C113.886 226.598 108.374 218.883 101.949 211.818C94.3435 203.462 83.5723 198.82 72.9496 195.109C67.4848 193.2 41.3774 182.957 51.111 194.664C63.5877 209.602 76.443 217.215 94.8228 224.031C106.859 228.508 117.228 233.95 125.488 243.565C125.831 243.988 125.237 244.629 124.807 244.267C109.586 231.371 92.1467 225.975 74.0793 217.935C60.5522 211.906 51.9892 198.305 42.5317 187.938C41.9328 187.274 42.5196 185.993 43.491 186.181C59.9933 189.158 75.9175 192.569 90.6218 200.555C102.084 206.773 109.435 217.768 117.63 227.633C113.129 219.513 108.522 211.417 104.239 203.221C100.044 195.208 95.7007 187.415 90.8586 179.934C87.6554 179.876 84.2438 179.866 81.3969 178.386C79.8164 177.561 77.4535 175.069 78.5859 173.191C79.5702 171.534 82.2628 171.687 83.9327 171.785C84.3362 171.805 84.8512 171.863 85.3663 171.922C82.4162 167.83 79.2753 163.822 75.885 159.97C75.5695 160.133 75.191 160.213 74.8006 160.076C74.4661 159.96 74.1799 159.799 73.8453 159.682C72.5263 160.07 71.1397 160.222 69.6752 160.165C69.2057 160.153 69.0061 159.931 68.9033 159.623C68.7434 159.627 68.5834 159.632 68.4162 159.574C68.221 159.506 68.0053 159.491 67.7999 159.449C56.9388 168.296 42.5748 175.312 28.3524 170.434C27.5438 170.152 27.5348 169.269 28.0601 168.725C32.2588 164.463 36.9154 160.573 42.6626 158.701C36.0211 156.562 30.1143 152.922 27.1685 148.407C26.9263 148.05 27.1566 147.615 27.4192 147.343L27.3958 147.486ZM134.108 192.558C134.071 192.242 133.979 191.906 133.904 191.607C133.651 190.701 133.295 189.818 132.91 188.926C132.483 187.898 131.992 186.787 131.367 185.78C131.103 187.537 131.479 189.275 132.193 191.04C132.479 191.776 132.908 192.472 133.347 193.141C133.432 192.837 133.732 192.548 134.085 192.701C134.14 192.721 134.168 192.73 134.196 192.74C134.178 192.704 134.133 192.657 134.136 192.567L134.108 192.558ZM140.522 129.018C140.306 127.851 140.079 126.711 139.797 125.552C139.79 125.489 136.195 117.806 135.402 119.954C133.815 124.25 133.464 128.704 133.891 133.189C134.399 138.701 136.646 143.306 139.705 147.527C138.028 141.849 138.815 135.273 140.522 129.018ZM152.01 129.818C151.713 127.956 151.414 125.275 151.492 126.637C151.384 125.932 151.237 125.244 151.128 124.539C150.661 121.557 149.13 119.203 146.487 117.522C145.076 121.03 143.822 124.624 142.756 128.222C140.328 136.438 140.843 143.165 143.821 150.147C143.944 149.827 144.078 149.479 144.201 149.159C143.212 142.841 146.797 136.061 151.418 131.522C151.499 131.065 151.569 130.635 151.678 130.187C151.732 129.964 151.867 129.859 152.037 129.828L152.01 129.818ZM149.594 154.135C150.296 153.379 151.015 152.661 151.845 151.981C152.637 151.318 153.945 152.441 153.216 153.187C152.3 154.171 151.385 155.154 150.469 156.138C161.514 156.116 170.898 136.872 167.598 127.352C165.553 130.7 162.876 133.554 160.066 136.422C154.537 142.008 150.877 146.762 149.622 154.144L149.594 154.135ZM146.719 155.858C146.719 155.858 146.772 155.968 146.817 156.014C146.968 156.279 146.848 156.51 146.626 156.675C146.587 157.025 146.537 157.401 146.515 157.788C146.895 157.375 147.257 156.926 147.637 156.513C147.524 156.231 147.762 155.859 148.155 155.905C148.166 155.879 148.186 155.825 148.224 155.808C145.314 144.697 157.876 137.021 164.435 128.672C164.344 128.58 164.263 128.461 164.259 128.308C164.535 122.978 151.426 133.889 150.722 134.734C147.674 138.307 146.377 142.34 146.184 146.547C146.651 146.65 147.071 147.039 147.116 147.661C147.224 150.427 146.976 153.129 146.681 155.875L146.719 155.858ZM186.732 185.964C185.923 188.562 185.707 191.184 185.87 193.969C185.972 195.763 186.442 197.503 186.828 199.214C188.192 194.841 188.323 190.218 186.742 185.937L186.732 185.964ZM200.545 100.031C196.706 82.1995 185.689 66.5889 178.408 49.9797C181.502 82.1015 198.649 113.859 200.241 146.184C203.324 130.831 203.869 115.5 200.517 100.021L200.545 100.031ZM223.053 52.6329C223.829 54.4805 224.286 56.3376 224.493 58.3501C224.478 55.9197 224.331 53.5038 223.777 51.1581C223.63 51.0462 223.494 50.9076 223.375 50.8055C223.243 51.3959 223.101 52.0131 223.053 52.6329ZM190.204 32.0324C189.397 31.9929 178.624 34.3527 183.085 35.3352C185.279 35.7984 187.348 36.9154 189.308 37.9035C198.752 42.6273 205.338 48.7783 216.097 49.1721C210.147 44.8201 204.774 39.7904 200.423 33.9958C200.25 34.1172 200.059 34.2022 199.78 34.1048C196.678 32.9604 193.533 32.2558 190.193 32.0591L190.204 32.0324ZM196.947 11.9258C194.006 11.0197 194.947 11.8637 195.436 14.4596C195.952 17.3983 196.411 20.3174 197.135 23.2076C199.966 34.4427 210.549 41.7168 219.158 49.2714C219.213 49.2909 219.259 49.3371 219.277 49.3736C219.332 49.3931 219.368 49.466 219.413 49.5122C219.824 49.0191 220.585 49.0124 221.147 49.3603C221.209 49.1999 221.281 49.0128 221.342 48.8525C214.942 41.8875 211.093 31.3274 211.101 21.5087C208.472 15.922 202.661 13.6796 196.919 11.9161L196.947 11.9258ZM216.73 8.50048C215.079 6.95363 213.297 16.6981 213.197 17.4515C212.74 21.6873 213.494 25.9822 214.431 30.1291C215.796 36.1233 218.518 41.4695 222.12 46.3352C218.396 40.3053 215.777 33.5398 214.361 26.7703C213.63 23.2409 213.851 19.6198 214.799 16.1621C215.493 13.6155 216.176 11.0957 216.72 8.5272L216.73 8.50048ZM226.738 25.6681C227.247 23.0267 228.181 20.5945 229.356 18.2768C228.389 13.3012 227.819 8.2821 223.626 4.54375C218.437 -0.0580718 218.701 10.0378 218.234 11.9964C216.226 20.2679 215.925 26.0738 218.762 34.2491C220.259 38.5008 222.53 42.3861 224.704 46.3588C225.386 47.6279 226.031 48.914 226.675 50.2001C225.313 42.0551 225.175 33.8525 226.71 25.6584L226.738 25.6681ZM258.733 29.7222C260.22 26.7557 260.96 23.3464 261.591 20.1412C262.777 14.0078 262.149 13.6672 255.916 17.4615C242.886 25.3682 237.076 37.2827 233.528 51.0482C234.854 49.5715 236.372 48.2528 238.265 47.2771C238.972 46.9179 239.878 47.689 239.545 48.3911C239.411 48.7386 239.194 49.0568 239.033 49.3945C242.464 45.3187 246.847 42.0602 251.657 39.4971C254.52 36.7381 256.854 33.4612 258.705 29.7124L258.733 29.7222ZM240.811 56.2906C241.099 55.5423 242.297 55.9611 242.01 56.7095C241.815 57.2173 241.536 57.6959 241.303 58.2207C245.099 57.3946 248.874 56.6219 252.545 55.2974C258.385 53.1846 262.321 48.0423 265.79 43.3735C266.832 41.9792 270.902 35.0044 272.48 34.7674C265.263 35.8536 258.408 37.9754 252.045 41.4513C251.29 41.8543 250.58 42.3034 249.869 42.7525C249.302 43.1604 248.762 43.5781 248.176 43.9495C243.977 47.0599 240.712 50.9511 237.552 55.0611C237.769 55.3188 237.879 55.6908 237.662 56.009C236.893 57.1045 236.004 58.4309 235.042 59.7013C236.531 59.2819 238.056 58.9354 239.58 58.5889C240.045 57.8723 240.465 57.1094 240.811 56.2906ZM228.254 64.6959C228.563 64.7131 228.901 64.7401 229.21 64.7573C230.918 64.8387 232.573 64.2347 234.082 63.5188C235.59 62.8028 236.891 61.8024 238.011 60.6172C236.538 60.83 235.082 61.0794 233.71 61.3579C232.17 63.063 230.349 64.4276 228.208 64.6497C228.208 64.6497 228.226 64.6861 228.243 64.7226L228.254 64.6959ZM232.834 51.8668C232.41 51.9005 231.921 51.6085 231.918 51.1224C232.296 42.0696 236.037 33.9791 241.764 27.2194C242.865 23.6937 243.845 20.1557 244.302 16.4959C244.362 16.0925 241.369 2.3152 239.084 6.70041C238.142 8.49337 236.766 10.3468 235.622 12.0084C227.63 23.6759 227.975 35.0429 228.391 47.7078C228.501 47.5037 228.601 47.3264 228.711 47.1223C229.383 46.1141 231.195 46.7473 231.025 47.9308C230.612 50.8177 230.133 53.712 229.57 56.577C230.554 54.9201 231.612 53.3193 232.816 51.8303L232.834 51.8668ZM218.625 88.2807C218.208 86.0737 217.505 83.706 216.335 81.812C216.061 85.3237 217.027 88.5713 217.688 91.9548C218 90.7301 218.313 89.5054 218.625 88.2807ZM186.767 219.625C182.931 222.286 180.823 226.126 178.238 229.892C181.442 226.737 184.426 223.414 186.767 219.625ZM199.486 173.505C199.945 172.968 200.432 172.441 200.902 171.878C202.497 169.949 204.275 167.872 205.485 165.628C203.391 165.563 202.016 167.083 200.912 168.971C200.431 170.47 199.967 172.006 199.486 173.505ZM163.463 251.891C163.529 249.58 163.145 247.203 162.407 245.338C160.548 249.024 160.832 252.73 161.093 256.58C161.886 255.008 162.669 253.463 163.453 251.918L163.463 251.891ZM258.875 124.108C254.945 122.401 256.555 130.724 256.943 132.678C257.771 136.696 259.923 140.479 262.18 143.905C264.546 147.46 267.53 150.23 270.61 152.913C270.798 151.766 271.08 150.622 271.445 149.506C267.207 140.781 269.451 128.682 258.875 124.108ZM278.307 130.654C278.053 130.656 277.774 130.559 277.737 130.243C277.235 127.763 274.597 113.474 271.74 119.266C269.494 123.877 269.391 129.085 269.926 134.031C270.405 138.382 271.911 142.364 273.664 146.28C274.103 146.373 274.498 146.662 274.633 147.134C274.93 146.359 275.238 145.557 275.536 144.782C275.293 139.817 276.377 135.103 278.363 130.673L278.307 130.654ZM312.422 152.485C303.734 150.571 293.914 151.354 286.119 155.512C286.348 155.986 286.31 156.579 285.839 156.9C284.174 158.106 281.316 160.442 278.697 161.498C290.8 163.331 304.313 161.989 312.422 152.485ZM281.779 151.086C281.636 152.612 281.077 153.902 280.323 155.124C280.317 155.304 280.301 155.511 280.323 155.7C280.893 155.535 281.452 155.397 282.038 155.269C282.523 154.832 283.052 154.441 283.61 154.059C283.591 153.78 283.78 153.452 284.166 153.435C284.364 153.414 284.562 153.392 284.76 153.37C287.49 151.778 290.784 150.776 294.3 150.186C296.937 148.591 299.324 146.575 301.379 144.353C303.355 142.254 304.734 139.735 305.834 137.118C306.657 135.223 308.538 126.21 304.353 128.871C299.296 132.076 293.729 135.042 289.211 138.737C287.625 140.972 285.69 142.964 283.576 144.681C282.5 146.245 281.645 147.977 281.076 149.87C281.502 150.08 281.807 150.52 281.762 151.049L281.779 151.086ZM278.085 151.402C278.24 151.244 278.424 151.096 278.569 150.965C278.771 149.368 279.252 147.869 279.956 146.448C279.914 146.311 279.937 146.168 280.11 146.047C280.12 146.02 280.159 146.003 280.197 145.986C282.062 142.364 285.246 139.262 288.964 136.499C291.799 131.669 293.277 126.093 292.711 120.651C291.766 111.257 281.656 127.368 280.23 130.174C278.142 134.294 277.588 138.618 277.455 142.997C277.922 143.099 278.327 143.362 278.403 143.904C278.732 146.505 278.567 148.994 278.074 151.428L278.085 151.402ZM226.904 208.82C226.237 210.557 225.653 212.324 225.265 214.158C224.92 215.796 224.969 217.481 224.896 219.153C226.217 215.795 227.326 212.332 226.904 208.82ZM192.648 249.264C194.923 246.634 196.5 243.517 197.192 240.151C194.33 242.334 193.594 245.897 192.648 249.264ZM179.972 274.361C176.127 274.079 172.819 276.106 169.142 277.034C173.005 277.02 176.74 276.354 179.972 274.361ZM153.239 310.613C150.76 312.294 149.633 315.144 148.489 317.957C150.653 315.864 152.395 313.471 153.239 310.613ZM140.997 362.902C145.732 353.703 151.13 344.919 154.567 335.146C154.886 334.318 156.196 334.776 155.878 335.604C152.106 346.412 146.425 356.674 140.152 366.335C140.121 366.415 140.045 366.449 139.979 366.456C139.907 366.643 139.863 366.84 139.819 367.037C153.638 349.009 164.173 329.075 168.298 306.811C168.329 306.73 161.385 315.339 161.237 315.56C156.396 321.659 153.156 328.53 150.136 335.569C146.334 344.396 143.683 353.685 141.035 362.884L140.997 362.902ZM171.355 372.78C170.856 369.635 169.066 365.978 167.434 370.804C166.372 373.98 165.31 377.155 164.287 380.314C163.062 384.16 162.165 388.061 161.212 391.941C161.288 391.907 161.337 391.863 161.423 391.803C162.283 391.376 163.043 392.278 162.822 393.019C162.781 393.126 162.75 393.206 162.709 393.313C164.302 391.141 166.178 389.22 168.292 387.503C170.883 382.982 172.161 377.76 171.337 372.743L171.355 372.78ZM159.987 400.729C160.154 400.787 160.291 400.926 160.323 401.088C161.117 400.669 161.91 400.249 162.75 399.875C163.64 398.792 164.328 397.577 164.877 396.314C163.833 396.889 162.919 397.539 162.013 398.253C161.347 399.082 160.67 399.937 159.949 400.746L159.987 400.729ZM190.243 380.167C184.205 381.149 178.523 383.014 173.387 386.343C171.832 387.345 170.469 388.506 169.207 389.733C168.152 391.244 166.933 392.606 165.605 393.84C165.796 393.755 165.997 393.643 166.188 393.558C167.045 393.221 167.773 393.961 167.531 394.755C167.15 396.077 166.588 397.457 165.879 398.725C167.066 398.352 168.261 398.041 169.518 397.814C171.976 396.52 174.825 395.606 177.453 394.857C178.74 393.73 179.836 392.688 180.61 391.989C184.193 388.754 188.17 384.657 190.232 380.193L190.243 380.167ZM172.725 404.118C175.16 404.12 177.687 404.457 180.096 404.935C182.249 404.929 184.387 404.797 186.375 404.643C188.957 404.423 191.51 403.951 193.908 403.061C197.978 401.603 198.511 397.333 194.507 395.328C189.706 392.923 182.204 395.577 177.575 397.173C177.176 397.306 176.784 397.503 176.403 397.673C174.188 399.324 171.526 400.819 169.013 400.941C168.593 401.128 168.163 401.342 167.733 401.555C167.407 401.745 167.127 401.98 166.791 402.196C168.583 402.307 170.376 402.661 172.147 403.401C172.454 403.508 172.64 403.846 172.715 404.145L172.725 404.118ZM168.623 404.261C166.558 403.873 164.479 403.935 162.363 404.257C160.833 404.783 159.26 405.173 157.574 405.281C157.254 405.291 157.003 405.203 156.811 405.045C156.512 405.001 156.281 404.86 156.082 404.639C155.719 405.088 155.367 405.511 155.005 405.96C159.316 406.345 164.308 405.451 168.595 404.251L168.623 404.261ZM154.295 403.196C154.824 402.562 155.362 401.902 155.918 401.277C156.732 400.228 157.463 399.149 158.165 398.061C158.18 397.612 158.195 397.162 158.247 396.695C157.041 397.941 156.017 399.372 155.112 400.905C155.092 400.958 155.089 401.048 155.096 401.112C155.07 401.345 154.925 401.476 154.744 401.534C154.404 402.173 154.064 402.812 153.751 403.461C153.942 403.376 154.133 403.291 154.295 403.196ZM157.625 390.658C157.956 390.046 158.752 390.112 159.078 390.499C159.638 387.723 160.424 384.936 161.294 382.179C161.294 382.179 161.238 382.159 161.22 382.123C159.631 379.263 159.156 376.218 159.258 373.071C155.189 379.136 155.459 387.324 155.394 394.82C156.154 393.418 156.904 392.043 157.636 390.631L157.625 390.658ZM70.1853 486.244C66.6697 486.835 63.6048 488.887 60.5252 490.812C64.0525 489.861 67.3582 488.5 70.1853 486.244ZM31.5408 530.127C24.9073 532.084 21.6454 539.917 17.5452 545.487C23.7735 542.115 28.0658 536.128 31.5408 530.127ZM26.9264 485.5C26.323 491.352 26.3241 497.112 27.0001 502.926C27.5179 501.743 28.0459 500.533 28.5637 499.349C28.5071 495.298 27.7753 489.465 26.9264 485.5ZM37.2742 289.713C41.2664 295.291 46.632 300.833 52.9993 303.603C52.8701 302.952 52.7511 302.274 52.6776 301.642C52.6159 301.226 52.9651 300.893 53.3612 300.85C47.7701 297.623 42.5558 293.498 37.2742 289.713ZM41.664 271.451C43.0533 277.878 45.3405 283.861 48.649 289.655C50.5161 292.944 52.7954 295.984 54.9398 299.128C56.0551 300.093 57.1426 301.049 58.2125 301.969C58.7056 302.414 58.336 303.376 57.639 303.133C58.1233 303.847 58.5695 304.579 59.0055 305.338C59.4545 305.404 59.9138 305.443 60.4112 305.465C60.2907 304.544 60.1702 303.623 60.1539 302.677C57.5808 298.262 56.1228 293.084 55.8122 287.883C53.1286 280.792 49.0863 274.439 41.6434 271.505L41.664 271.451ZM65.7715 266.566C64.879 264.526 59.1949 274.878 59.6584 273.919C57.7605 277.954 57.7071 282.786 57.9427 287.112C58.1826 291.015 59.3072 294.591 60.7165 298.084C60.825 297.637 60.8675 297.197 61.0039 296.76C61.328 295.752 63.0521 295.626 63.4133 296.662C63.5439 296.98 63.6643 297.326 63.767 297.634C64.0471 296.823 64.2994 296.002 64.7013 295.202C64.8245 294.882 65.0739 294.726 65.3131 294.598C66.0712 291.801 67.1286 289.048 68.5382 286.448C69.2295 279.627 68.4036 272.639 65.7612 266.593L65.7715 266.566ZM92.8151 300.386C95.1271 297.496 94.6764 296.611 91.0006 296.054C88.5222 295.673 85.8005 296.42 83.5027 297.133C81.7361 297.698 80.1031 298.491 78.523 299.394C76.7845 301.121 74.8406 302.807 72.7763 304.147C71.7686 305.947 70.6141 307.635 69.4141 309.277C78.1963 310.042 87.2698 307.331 92.8254 300.359L92.8151 300.386ZM79.2473 296.192C83.0866 292.289 86.3242 287.812 88.6652 283.446C89.6348 281.663 92.5593 274.379 86.9645 275.031C81.6058 275.645 77.2967 278.383 73.8918 282.226C72.3411 283.957 71.1881 285.889 70.1819 287.932C69.6572 291.356 68.7217 294.697 67.4443 297.858C67.4898 298.48 67.5252 299.129 67.5048 299.759C68.4729 298.308 69.5703 296.934 70.8804 295.663C71.5405 295.015 72.8188 295.886 72.4169 296.685C70.9046 299.552 68.9946 302.219 67.1682 304.916C68.389 304.372 69.5568 303.719 70.7174 303.003C70.7379 302.95 70.7306 302.886 70.7892 302.816C72.5393 300.153 75.6511 297.815 79.2575 296.165L79.2473 296.192ZM67.0387 310.357C66.7877 310.269 66.5089 310.172 66.258 310.084C66.2022 310.065 66.167 309.992 66.1391 309.982C65.297 311.022 64.4726 312.098 63.6203 313.164C63.5852 313.667 63.5779 314.18 63.5428 314.683C64.7443 313.284 65.9179 311.875 67.0181 310.411L67.0387 310.357ZM60.3114 336.35C60.3114 336.35 60.1396 336.139 60.0765 336.056C59.7507 335.669 59.9531 335.225 60.3067 335.045C58.9517 331.328 56.9759 327.334 53.9585 324.733C54.9469 329.323 57.5433 333.019 60.2615 336.727C60.2747 336.61 60.2879 336.493 60.3011 336.377L60.3114 336.35ZM68.7435 348.481C65.4762 350.977 63.4724 354.218 61.7519 357.709C64.3735 354.836 67.3576 352.089 68.7435 348.481ZM67.5599 374.531C63.4769 377.834 61.3677 382.583 59.2234 387.26C63.1493 383.873 67.0501 379.234 67.5599 374.531ZM46.4892 431.526C46.3704 423.602 46.1576 415.677 44.6374 407.78C41.4002 391.098 34.5829 375.257 32.8497 358.282C32.7792 357.56 33.8664 357.364 34.003 358.079C37.4764 374.722 42.2307 390.994 46.0269 407.538C47.3133 413.08 47.7341 418.653 47.9288 424.238C48.8347 419.492 49.7128 414.736 50.5629 409.971C50.8129 381.412 41.7685 351.94 18.8203 333.556C18.8203 333.556 20.1477 354.633 20.6193 357.192C22.5435 367.989 25.4332 378.578 28.5313 389.118C33.7437 406.914 38.3545 424.712 44.299 442.249C45.0731 438.67 45.7812 435.098 46.4995 431.499L46.4892 431.526ZM7.81906 557.882C6.60275 550.758 8.03919 542.408 3.93976 536.369C1.63468 544.839 4.50193 552.934 7.03902 561.066C7.28972 560.001 7.5302 558.964 7.80879 557.909L7.81906 557.882ZM127.685 384.714C127.696 379.747 128.003 374.913 127.089 370.047C125.188 374.748 126.836 380.174 127.41 385.346C127.493 385.132 127.575 384.919 127.647 384.731L127.685 384.714ZM81.1306 464.666C87.1591 460.497 93.7483 457.009 100.238 453.698C109.719 448.856 120.41 447.286 129.797 442.442C130.428 442.117 130.858 443.055 130.255 443.39C121.952 448.128 112.325 449.646 103.776 453.873C98.454 456.531 93.3673 459.483 88.2982 462.471C92.8922 461.378 97.6521 460.677 102.186 459.987C121.364 456.987 134.532 449.462 150.465 439.265C156.042 435.696 165.168 433.671 151.959 432.33C141.401 431.248 129.681 435.581 120.129 439.125C104.308 444.996 91.4454 453.537 78.8428 463.624C77.7235 464.809 76.6041 465.994 75.4745 467.206C77.2835 466.201 79.1806 465.379 81.1409 464.639L81.1306 464.666ZM79.5784 458.333C85.6961 444.465 93.6481 431.42 97.8449 416.789C97.9637 416.315 98.6783 416.595 98.5699 417.043C95.4042 429.729 90.1094 441.702 84.0544 453.349C86.7962 450.245 89.475 447.058 92.0423 443.833C91.9821 443.66 91.9703 443.444 92.1082 443.249C100.756 430.204 107.127 417.486 109.282 402.081C110.449 393.607 110.442 385.147 111.064 376.695C106.681 386.622 99.9878 396.227 96.3139 406.039C89.6438 423.897 83.9627 441.98 78.0102 460.029C78.5456 459.458 79.0253 458.868 79.5608 458.297L79.5784 458.333ZM80.2389 388.449C76.3339 394.087 77.6263 400.601 78.1778 407.069C81.3609 401.663 81.8716 394.324 80.2389 388.449ZM122.637 316.352C122.095 318.588 121.852 320.867 121.887 323.244C121.914 325.315 122.261 327.376 122.448 329.442C122.558 329.238 122.668 329.034 122.778 328.83C123.789 324.879 123.824 320.344 122.637 316.352ZM122.544 335.448C108.156 361.462 93.0632 387.17 78.2845 413.048C78.264 413.101 78.2538 413.128 78.2611 413.191C78.2347 413.424 78.1071 413.592 77.9061 413.704C72.2646 423.615 66.6406 433.564 61.1561 443.561C65.0484 440.344 69.9518 438.116 74.775 438.073C75.4705 438.073 75.9519 438.878 75.6982 439.457C72.8322 446.094 65.2734 450.789 57.8278 449.674C53.3687 457.907 48.9652 466.16 44.691 474.488C37.9979 487.549 32.178 500.642 27.0887 513.809C40.8429 494.303 61.1787 477.914 76.9671 461.18C76.9671 461.18 76.9774 461.153 76.9876 461.126C76.7367 461.039 76.5268 460.844 76.5737 460.557C78.2146 447.065 83.5255 434.31 88.2347 421.556C93.5086 407.332 98.0679 392.828 105.967 379.674C107.043 376.048 108.945 373.075 111.607 370.671C111.922 368.204 112.265 365.747 112.796 363.295C113.073 361.998 115.195 362.072 115.009 363.462C114.752 365.282 114.384 367.063 113.884 368.859C113.295 372.533 112.904 376.186 112.68 379.897C111.879 389.226 111.805 398.476 110.451 407.764C109.249 415.832 105.906 423.546 101.761 430.798C110.885 417.829 118.84 404.117 125.404 389.829C124.4 386.022 124.334 381.665 124.147 377.871C123.945 373.95 124.075 369.661 126.579 366.352C127.207 365.541 128.361 365.914 128.623 366.794C129.757 370.676 130.138 374.871 130.031 379.017C131.997 374.065 133.85 369.075 135.471 364.033C141.68 344.74 144.043 324.922 142.781 305.323C141.922 306.569 141.026 307.832 140.158 309.105C139.831 309.627 138.878 309.143 139.149 308.601C140.176 306.504 141.314 304.447 142.498 302.435C142.409 301.434 142.336 300.469 142.237 299.494C135.708 311.552 129.088 323.517 122.458 335.508L122.544 335.448ZM59.3742 448.365C64.8019 448.23 70.157 444.826 72.8312 440.334C67.4946 441.138 63.3867 444.916 59.3742 448.365ZM145.404 223.907C155.38 209.872 161.205 195.78 168.496 180.503C169.968 177.41 170.476 176.829 172.295 175.222C169.082 178.07 163.94 179.851 160.122 181.639C141.491 190.378 136.118 209.387 134.427 227.621C134.398 227.944 134.187 228.082 133.95 228.121C133.94 229.876 133.902 231.621 133.931 233.358C136.33 217.645 145.355 201.064 156.282 189.907C156.641 189.547 157.159 190.092 156.922 190.464C151.284 198.801 145.634 206.679 141.455 215.829C138.096 223.173 136.687 230.957 134.158 238.53C134.274 241.026 134.515 243.445 134.718 245.88C136.628 237.696 140.329 231.108 145.442 223.89L145.404 223.907ZM103.191 177.3C100.43 180.701 101.614 184.782 102.452 188.774C104.35 185.314 104.462 180.988 103.191 177.3ZM80.7387 174.337C80.2912 174.514 80.8401 174.979 81.2011 175.438C82.0069 176.387 82.908 177.005 84.145 177.406C85.9676 178.013 87.9162 178.209 89.8033 178.565C88.9432 177.264 88.0831 175.963 87.2127 174.689C86.6903 174.567 86.2061 174.428 85.7292 174.353C84.2148 174.096 82.2412 173.801 80.7387 174.337ZM75.965 156.057C76.2922 156.111 76.5226 156.252 76.7251 156.384C82.6762 153.734 86.0691 148.523 88.5273 142.864C89.8092 139.856 90.5614 136.663 91.1433 133.502C91.3075 132.498 91.4438 131.485 91.5419 130.489C91.5814 130.139 91.9775 129.519 92.3428 128.98C92.2283 129.031 92.1697 129.101 92.0655 129.126C91.1324 130.073 90.0981 130.954 89.0007 131.753C87.9106 132.615 86.6268 133.076 85.3253 133.5C82.7927 141.164 79.2152 148.584 75.9371 156.048L75.965 156.057ZM55.7878 133.67C52.81 130.72 48.9914 127.9 44.6172 127.433C38.2766 126.733 40.3437 132.548 42.312 135.328C47.452 142.61 55.0933 147.25 62.2094 152.434C62.5483 152.128 63.0032 152.014 63.5403 152.262C64.7333 152.861 65.9748 153.416 67.1781 153.988C65.6298 152.174 64.4936 150.11 64.0647 147.686C63.9134 146.845 64.7643 146.112 65.5685 146.241C65.1281 145.33 64.6393 144.462 64.0948 143.574C63.7264 143.051 63.3961 142.512 63.0556 141.999C60.8173 138.852 58.1286 135.973 55.798 133.643L55.7878 133.67ZM68.9687 132.697C68.4927 129.408 67.5236 126.251 66.0792 123.26C65.5684 122.203 58.5163 114.464 58.1558 116.885C56.3123 129.67 63.501 138.698 70.0516 148.565C69.9318 143.279 69.7664 137.947 69.0069 132.68L68.9687 132.697ZM75.6769 153.35C79.6735 143.439 84.2175 133.75 86.3711 123.286C86.4224 123.153 87.5341 112.355 85.1617 113.921C81.6743 116.25 78.7739 119.026 76.123 122.222C71.5048 127.823 71.8524 134.492 72.7868 141.033C73.183 140.99 73.6291 141.146 73.8302 141.61C75.2703 145.023 75.8345 149.07 75.3716 152.91C75.4699 153.065 75.5785 153.194 75.6769 153.35ZM72.4418 155.433C72.5973 155.275 72.8056 155.226 73.0389 155.278C73.0829 155.081 73.1166 154.911 73.1606 154.714C71.5831 153.799 70.1023 152.797 68.6803 151.724C69.7253 153.12 71.03 154.333 72.4418 155.433ZM30.7234 169.201C43.2992 172.685 56.0375 166.526 66.2826 159.283C65.8996 159.21 65.4887 159.127 65.116 159.027C59.6609 161.456 52.2288 161.376 45.2556 159.606C39.777 162.179 35.0762 165.114 30.7234 169.201ZM47.3594 157.34C52.7462 158.464 57.9053 158.206 63.1435 157.247C63.2359 157.006 63.3386 156.739 63.5323 156.564C60.3492 154.725 57.2703 152.285 54.4276 149.806C46.1232 145.905 35.8249 143.489 29.4854 147.974C26.7433 149.926 45.754 156.992 47.3594 157.34Z" fill="#F5F8F4"/>
</svg>
