<svg width="107" height="69" viewBox="0 0 107 69" fill="none" xmlns="http://www.w3.org/2000/svg">
<path d="M44.6484 0C51.9093 0.176867 57.7552 1.33116 62.5617 5.21604C64.833 7.05298 66.4186 9.72771 68.3859 11.9587C68.9227 12.5669 69.655 13.2185 70.4028 13.3861C80.8411 15.7164 90.5657 19.5764 98.3572 27.1445C104.665 33.2728 107.703 40.9526 106.577 49.7215C105.289 59.7502 97.4108 66.797 87.1556 68.0785C76.1494 69.4531 66.1238 66.3656 56.7499 61.0906C52.2941 58.5835 48.403 55.0772 44.2109 52.0859C43.7051 51.726 42.8022 51.4684 42.2685 51.667C36.3512 53.8794 30.2849 55.4402 23.958 55.5736C20.8396 55.6388 17.6622 55.4557 14.5965 54.9127C5.06113 53.2309 1.31278 44.915 0.664264 38.132C-0.00286794 31.1535 2.57257 25.0779 6.84221 19.8185C16.8647 7.47187 29.987 1.02087 44.6484 0ZM47.109 18.9559C41.9954 22.2946 38.5822 26.7784 38.0112 32.9718C37.2727 40.965 40.9994 47.1771 46.6126 52.3248C54.7671 59.8029 64.5258 64.2836 75.3085 66.3687C82.0233 67.6689 88.7319 67.4237 95.037 64.1905C102.773 60.2249 107.045 51.2574 104.777 43.0843C103.502 49.0109 99.468 51.4995 94.2489 52.5421C92.716 52.8461 91.1366 53.0292 89.5759 53.0758C82.6625 53.2837 76.0657 51.7322 69.6922 49.1878C62.0156 46.1252 54.9036 42.1503 49.5604 35.6435C45.4459 30.6353 43.7703 25.171 47.1059 18.9559H47.109ZM58.3044 11.5771C58.7575 7.35086 57.1719 4.13001 53.4794 2.90435C50.7519 1.99829 47.7265 1.42735 44.8718 1.55457C33.934 2.04173 24.3521 6.36723 15.7135 12.8679C11.1739 16.2842 7.18043 20.3305 4.87495 25.5961C3.94717 27.7154 3.69894 30.2692 3.70825 32.6243C3.71756 35.3083 5.64758 36.8381 8.04615 37.7876C12.3158 27.9451 19.8839 21.4909 28.8948 16.5511C38.0547 11.5243 47.7979 9.42673 58.3044 11.5771ZM58.3231 41.719C59.6884 42.532 61.1623 43.5032 62.7199 44.3193C71.5664 48.9675 80.7976 52.238 90.9815 51.5088C93.4235 51.335 95.8221 50.5096 98.5278 49.9201C91.1708 38.0358 81.5982 30.3002 68.9413 27.6565C65.2488 32.5436 61.8449 37.0522 58.32 41.7159L58.3231 41.719ZM9.6752 38.4144C10.4727 38.6161 11.1584 38.824 11.8535 38.9636C20.1848 40.6299 27.9391 38.6378 35.4203 35.1284C35.9105 34.8987 36.3512 34.0858 36.4163 33.4993C37.2976 25.7047 41.4058 20.0946 48.2168 16.5294C51.1367 14.9996 54.3792 14.0873 57.2432 12.9827C42.8642 7.66736 13.2746 23.1945 9.6752 38.4144ZM36.4225 36.3385C35.5661 36.6953 34.9641 36.9467 34.3653 37.198C28.2028 39.7797 21.817 41.3715 15.0991 40.8998C9.9979 40.543 5.08905 39.5376 2.19091 33.9586C2.19091 35.6 2.10092 36.8195 2.20642 38.0234C2.76806 44.372 6.31471 52.0363 15.1891 53.6591C22.3941 54.9779 29.3726 54.0501 36.2984 52.1232C38.3277 51.5584 40.3043 50.7982 42.4391 50.0845C39.029 45.9607 37.0369 41.5546 36.4225 36.3447V36.3385ZM99.6294 48.9644C102.72 46.4913 103.828 43.3605 103.452 39.7083C103.002 35.3549 100.768 31.8486 97.7304 28.8356C91.2483 22.4032 83.1993 18.7759 74.6383 16.1042C73.0558 15.6109 71.4237 15.2789 70.2259 14.9779C69.9498 18.8503 69.6922 22.4994 69.4223 26.2819C82.5942 29.1583 92.415 37.2042 99.6325 48.9613L99.6294 48.9644ZM57.7242 4.08657C61.274 8.71305 60.3741 13.3147 57.9197 17.8698C55.6514 22.0774 52.4182 25.4906 48.7226 28.4664C47.86 29.1614 47.6645 29.7417 48.1516 30.7687C50.0755 34.8398 53.1319 37.8652 56.7623 40.5523C61.395 35.96 65.5033 31.1721 67.7001 25.0531C70.71 16.6659 66.2418 7.21123 57.7273 4.08657H57.7242ZM57.9538 14.7979C50.2492 15.8964 46.0727 20.6407 47.3511 26.8342C52.6168 24.355 55.3287 19.8836 57.9538 14.7979Z" fill="black"/>
<path d="M46.1888 20C42.8532 26.2152 44.5287 31.6764 48.6432 36.6876C53.9896 43.1945 61.1015 47.1693 68.7751 50.2319C75.1485 52.7763 81.7454 54.3278 88.6587 54.1199C90.2226 54.0734 91.7989 53.8903 93.3318 53.5862C98.5509 52.5467 102.585 50.0582 103.86 44.1285C106.125 52.3016 101.856 61.2691 94.1199 65.2346C87.8147 68.4679 81.1093 68.713 74.3914 67.4129C63.6056 65.3277 53.85 60.844 45.6954 53.369C40.0822 48.2212 36.3556 42.0091 37.0941 34.016C37.665 27.8225 41.0752 23.3388 46.1919 20H46.1888Z" fill="#022111" fill-opacity="0.06"/>
<path d="M58.3047 11.5771C47.795 9.42365 38.0549 11.5243 28.895 16.5511C19.8872 21.4941 12.316 27.9451 8.04637 37.7876C5.6447 36.8381 3.71467 35.3084 3.70847 32.6243C3.70226 30.2692 3.94739 27.7155 4.87517 25.5962C7.18065 20.3305 11.1741 16.2842 15.7137 12.8679C24.3523 6.36415 33.9342 2.03866 44.872 1.5546C47.7267 1.42738 50.749 1.99832 53.4796 2.90438C57.1721 4.13004 58.7608 7.35089 58.3047 11.5771Z" fill="#022111" fill-opacity="0.06"/>
<path d="M36.4221 36.3385C37.0334 41.5514 39.0285 45.9545 42.4387 50.0783C40.3039 50.792 38.3273 51.5522 36.298 52.1169C29.3722 54.0439 22.3937 54.9716 15.1887 53.6529C6.31427 52.0301 2.76761 44.3658 2.20598 38.0172C2.10048 36.8163 2.19047 35.5969 2.19047 33.9523C5.08861 39.5314 10.0006 40.5337 15.0987 40.8936C21.8166 41.3652 28.2024 39.7765 34.3648 37.1918C34.9637 36.9405 35.5657 36.6891 36.4221 36.3323V36.3385Z" fill="#022111" fill-opacity="0.06"/>
<path d="M99.6294 48.9643C92.412 37.2042 82.5943 29.1614 69.4192 26.285C69.6892 22.5025 69.9467 18.8534 70.2229 14.981C71.4206 15.2819 73.0527 15.614 74.6352 16.1073C83.1962 18.7759 91.2453 22.4032 97.7273 28.8387C100.765 31.8516 102.996 35.358 103.449 39.7114C103.828 43.3604 102.717 46.4944 99.6263 48.9674L99.6294 48.9643Z" fill="#022111" fill-opacity="0.06"/>
<path d="M57.7247 4.08661C66.2392 7.21127 70.7074 16.669 67.6976 25.0532C65.5007 31.1691 61.3924 35.96 56.7597 40.5523C53.1293 37.8621 50.0729 34.8398 48.1491 30.7688C47.6619 29.7386 47.8574 29.1615 48.72 28.4664C52.4156 25.4907 55.652 22.0774 57.9171 17.8699C60.3715 13.3178 61.2714 8.71309 57.7216 4.08661H57.7247Z" fill="#022111" fill-opacity="0.06"/>
<path d="M57.9541 14.7979C55.3291 19.8836 52.6171 24.3549 47.3514 26.8342C46.073 20.6407 50.2495 15.8994 57.9541 14.7979Z" fill="#022111" fill-opacity="0.06"/>
</svg>
